riter neue.ufo
<glyph name="exclam" format="1">
  <advance width="445"/>
  <unicode hex="0021"/>
  <outline>
    <contour>
      <point x="232" y="-26" type="curve"/>
      <point x="295" y="-26"/>
      <point x="317" y="-7"/>
      <point x="317" y="61" type="curve" smooth="yes"/>
      <point x="317" y="128"/>
      <point x="295" y="146"/>
      <point x="230" y="146" type="curve" smooth="yes"/>
      <point x="167" y="146"/>
      <point x="144" y="128"/>
      <point x="144" y="61" type="curve" smooth="yes"/>
      <point x="144" y="-7"/>
      <point x="167" y="-26"/>
    </contour>
    <contour>
      <point x="283" y="254" type="line"/>
      <point x="314" y="723" type="line"/>
      <point x="313" y="742"/>
      <point x="302" y="750"/>
      <point x="284" y="750" type="curve"/>
      <point x="165" y="750" type="line"/>
      <point x="149" y="750"/>
      <point x="137" y="737"/>
      <point x="137" y="718" type="curve"/>
      <point x="176" y="254" type="line"/>
    </contour>
  </outline>
</glyph>
<glyph name="quotedbl" format="1">
  <advance width="441"/>
  <unicode hex="0022"/>
  <outline>
    <contour>
      <point x="187" y="733" type="line"/>
      <point x="187" y="745"/>
      <point x="181" y="750"/>
      <point x="175" y="750" type="curve"/>
      <point x="106" y="750" type="line"/>
      <point x="98" y="750"/>
      <point x="94" y="746"/>
      <point x="94" y="735" type="curve"/>
      <point x="94" y="478" type="line"/>
      <point x="94" y="467"/>
      <point x="98" y="463"/>
      <point x="106" y="463" type="curve"/>
      <point x="175" y="463" type="line"/>
      <point x="181" y="463"/>
      <point x="187" y="468"/>
      <point x="187" y="480" type="curve"/>
    </contour>
    <contour>
      <point x="347" y="733" type="line"/>
      <point x="347" y="745"/>
      <point x="341" y="750"/>
      <point x="335" y="750" type="curve"/>
      <point x="266" y="750" type="line"/>
      <point x="258" y="750"/>
      <point x="254" y="746"/>
      <point x="254" y="735" type="curve"/>
      <point x="254" y="478" type="line"/>
      <point x="254" y="467"/>
      <point x="258" y="463"/>
      <point x="266" y="463" type="curve"/>
      <point x="335" y="463" type="line"/>
      <point x="341" y="463"/>
      <point x="347" y="468"/>
      <point x="347" y="480" type="curve"/>
    </contour>
  </outline>
</glyph>
<glyph name="numbersign" format="1">
  <advance width="661"/>
  <unicode hex="0023"/>
  <outline>
    <contour>
      <point x="298" y="620" type="line"/>
      <point x="299" y="632"/>
      <point x="293" y="637"/>
      <point x="287" y="638" type="curve"/>
      <point x="219" y="644" type="line"/>
      <point x="211" y="645"/>
      <point x="206" y="641"/>
      <point x="205" y="630" type="curve"/>
      <point x="155" y="73" type="line"/>
      <point x="154" y="62"/>
      <point x="158" y="58"/>
      <point x="166" y="57" type="curve"/>
      <point x="234" y="51" type="line"/>
      <point x="240" y="51"/>
      <point x="247" y="55"/>
      <point x="248" y="67" type="curve"/>
    </contour>
    <contour>
      <point x="509" y="620" type="line"/>
      <point x="510" y="632"/>
      <point x="504" y="637"/>
      <point x="498" y="638" type="curve"/>
      <point x="430" y="644" type="line"/>
      <point x="422" y="645"/>
      <point x="417" y="641"/>
      <point x="416" y="630" type="curve"/>
      <point x="366" y="73" type="line"/>
      <point x="365" y="62"/>
      <point x="369" y="58"/>
      <point x="377" y="57" type="curve"/>
      <point x="445" y="51" type="line"/>
      <point x="451" y="51"/>
      <point x="458" y="55"/>
      <point x="459" y="67" type="curve"/>
    </contour>
    <contour>
      <point x="83" y="280" type="line"/>
      <point x="71" y="280"/>
      <point x="66" y="274"/>
      <point x="66" y="268" type="curve"/>
      <point x="66" y="199" type="line"/>
      <point x="66" y="191"/>
      <point x="70" y="187"/>
      <point x="81" y="187" type="curve"/>
      <point x="563" y="187" type="line"/>
      <point x="574" y="187"/>
      <point x="578" y="191"/>
      <point x="578" y="199" type="curve"/>
      <point x="578" y="268" type="line"/>
      <point x="578" y="274"/>
      <point x="573" y="280"/>
      <point x="561" y="280" type="curve"/>
    </contour>
    <contour>
      <point x="103" y="501" type="line"/>
      <point x="91" y="501"/>
      <point x="86" y="495"/>
      <point x="86" y="489" type="curve"/>
      <point x="86" y="420" type="line"/>
      <point x="86" y="412"/>
      <point x="90" y="408"/>
      <point x="101" y="408" type="curve"/>
      <point x="583" y="408" type="line"/>
      <point x="594" y="408"/>
      <point x="598" y="412"/>
      <point x="598" y="420" type="curve"/>
      <point x="598" y="489" type="line"/>
      <point x="598" y="495"/>
      <point x="593" y="501"/>
      <point x="581" y="501" type="curve"/>
    </contour>
  </outline>
</glyph>
<glyph name="dollar" format="1">
  <advance width="580"/>
  <unicode hex="0024"/>
  <outline>
    <contour>
      <point x="317" y="393" type="curve" smooth="yes"/>
      <point x="280" y="406"/>
      <point x="197" y="433"/>
      <point x="197" y="482" type="curve"/>
      <point x="197" y="524"/>
      <point x="246" y="542"/>
      <point x="296" y="542" type="curve"/>
      <point x="336" y="542"/>
      <point x="397" y="528"/>
      <point x="397" y="504" type="curve"/>
      <point x="417" y="502" type="line"/>
      <point x="439" y="504" type="line"/>
      <point x="431" y="588" type="line"/>
      <point x="431" y="591"/>
      <point x="398" y="612"/>
      <point x="304" y="612" type="curve"/>
      <point x="205" y="612"/>
      <point x="104" y="558"/>
      <point x="104" y="473" type="curve"/>
      <point x="104" y="382"/>
      <point x="193" y="350"/>
      <point x="228" y="336" type="curve" smooth="yes"/>
      <point x="263" y="322"/>
      <point x="369" y="301"/>
      <point x="369" y="243" type="curve"/>
      <point x="369" y="197"/>
      <point x="312" y="179"/>
      <point x="260" y="179" type="curve"/>
      <point x="186" y="179"/>
      <point x="139" y="205"/>
      <point x="139" y="233" type="curve"/>
      <point x="113" y="236" type="line"/>
      <point x="88" y="233" type="line"/>
      <point x="104" y="156" type="line"/>
      <point x="100" y="156"/>
      <point x="156" y="102"/>
      <point x="270" y="102" type="curve"/>
      <point x="376" y="102"/>
      <point x="460" y="158"/>
      <point x="460" y="252" type="curve"/>
      <point x="460" y="346"/>
      <point x="347" y="383"/>
    </contour>
    <contour>
      <point x="324" y="795" type="line"/>
      <point x="324" y="807"/>
      <point x="318" y="812"/>
      <point x="312" y="812" type="curve"/>
      <point x="243" y="812" type="line"/>
      <point x="235" y="812"/>
      <point x="231" y="808"/>
      <point x="231" y="797" type="curve"/>
      <point x="231" y="595" type="line"/>
      <point x="231" y="584"/>
      <point x="235" y="580"/>
      <point x="243" y="580" type="curve"/>
      <point x="312" y="580" type="line"/>
      <point x="318" y="580"/>
      <point x="324" y="585"/>
      <point x="324" y="597" type="curve"/>
    </contour>
    <contour>
      <point x="324" y="106" type="line"/>
      <point x="324" y="118"/>
      <point x="318" y="123"/>
      <point x="312" y="123" type="curve"/>
      <point x="243" y="123" type="line"/>
      <point x="235" y="123"/>
      <point x="231" y="119"/>
      <point x="231" y="108" type="curve"/>
      <point x="231" y="-88" type="line"/>
      <point x="231" y="-99"/>
      <point x="235" y="-103"/>
      <point x="243" y="-103" type="curve"/>
      <point x="312" y="-103" type="line"/>
      <point x="318" y="-103"/>
      <point x="324" y="-98"/>
      <point x="324" y="-86" type="curve"/>
    </contour>
  </outline>
</glyph>
<glyph name="ampersand" format="1">
  <advance width="754"/>
  <unicode hex="0026"/>
  <outline>
    <contour>
      <point x="113" y="516" type="curve"/>
      <point x="113" y="585"/>
      <point x="169" y="666"/>
      <point x="309" y="666" type="curve"/>
      <point x="472" y="666"/>
      <point x="510" y="579"/>
      <point x="510" y="510" type="curve"/>
      <point x="510" y="421"/>
      <point x="443" y="370"/>
      <point x="348" y="323" type="curve" smooth="yes"/>
      <point x="233" y="266"/>
      <point x="168" y="228"/>
      <point x="168" y="160" type="curve"/>
      <point x="168" y="107"/>
      <point x="207" y="68"/>
      <point x="285" y="68" type="curve"/>
      <point x="446" y="68"/>
      <point x="505" y="279"/>
      <point x="515" y="354" type="curve"/>
      <point x="517" y="360"/>
      <point x="525" y="361"/>
      <point x="533" y="361" type="curve"/>
      <point x="673" y="361" type="line"/>
      <point x="683" y="361"/>
      <point x="686" y="351"/>
      <point x="686" y="337" type="curve"/>
      <point x="686" y="327"/>
      <point x="684" y="315"/>
      <point x="674" y="311" type="curve"/>
      <point x="599" y="282" type="line"/>
      <point x="586" y="278"/>
      <point x="576" y="273"/>
      <point x="574" y="264" type="curve" smooth="yes"/>
      <point x="564" y="221"/>
      <point x="510" y="-15"/>
      <point x="291" y="-15" type="curve"/>
      <point x="120" y="-15"/>
      <point x="70" y="77"/>
      <point x="70" y="155" type="curve"/>
      <point x="70" y="271"/>
      <point x="162" y="323"/>
      <point x="291" y="384" type="curve" smooth="yes"/>
      <point x="390" y="431"/>
      <point x="416" y="453"/>
      <point x="416" y="505" type="curve"/>
      <point x="416" y="546"/>
      <point x="380" y="592"/>
      <point x="308" y="592" type="curve"/>
      <point x="240" y="592"/>
      <point x="207" y="548"/>
      <point x="207" y="510" type="curve"/>
      <point x="207" y="466"/>
      <point x="253" y="415"/>
      <point x="331" y="363" type="curve" smooth="yes"/>
      <point x="479" y="264"/>
      <point x="651" y="128"/>
      <point x="651" y="66" type="curve"/>
      <point x="615" y="-2" type="line"/>
      <point x="586" y="-2" type="line"/>
      <point x="586" y="58"/>
      <point x="442" y="191"/>
      <point x="284" y="295" type="curve" smooth="yes"/>
      <point x="167" y="372"/>
      <point x="113" y="435"/>
    </contour>
  </outline>
</glyph>
<glyph name="comma" format="1">
  <advance width="439"/>
  <unicode hex="002C"/>
  <outline>
    <contour>
      <point x="275" y="-147" type="line"/>
      <point x="281" y="-147"/>
      <point x="290" y="-141"/>
      <point x="290" y="-128" type="curve"/>
      <point x="290" y="90" type="line"/>
      <point x="290" y="159"/>
      <point x="269" y="177"/>
      <point x="202" y="177" type="curve" smooth="yes"/>
      <point x="137" y="177"/>
      <point x="115" y="159"/>
      <point x="115" y="90" type="curve" smooth="yes"/>
      <point x="115" y="25"/>
      <point x="122" y="1"/>
      <point x="203" y="1" type="curve"/>
      <point x="187" y="39" type="line"/>
      <point x="188" y="-130" type="line"/>
      <point x="188" y="-142"/>
      <point x="190" y="-147"/>
      <point x="198" y="-147" type="curve"/>
    </contour>
  </outline>
</glyph>
<glyph name="period" format="1">
  <advance width="452"/>
  <unicode hex="002E"/>
  <outline>
    <contour>
      <point x="225" y="-10" type="curve"/>
      <point x="291" y="-10"/>
      <point x="314" y="10"/>
      <point x="314" y="81" type="curve" smooth="yes"/>
      <point x="314" y="151"/>
      <point x="291" y="170"/>
      <point x="223" y="170" type="curve" smooth="yes"/>
      <point x="158" y="170"/>
      <point x="133" y="151"/>
      <point x="133" y="81" type="curve" smooth="yes"/>
      <point x="133" y="10"/>
      <point x="158" y="-10"/>
    </contour>
  </outline>
</glyph>
<glyph name="three" format="1">
  <advance width="641"/>
  <unicode hex="0033"/>
  <outline>
    <contour>
      <point x="308" y="-12" type="curve"/>
      <point x="464" y="-12"/>
      <point x="544" y="112"/>
      <point x="544" y="214" type="curve"/>
      <point x="544" y="307"/>
      <point x="456" y="389"/>
      <point x="363" y="389" type="curve"/>
      <point x="293" y="389"/>
      <point x="260" y="354"/>
      <point x="260" y="343" type="curve"/>
      <point x="282" y="351" type="line"/>
      <point x="521" y="541" type="line"/>
      <point x="528" y="545"/>
      <point x="502" y="649"/>
      <point x="482" y="649" type="curve"/>
      <point x="130" y="649" type="line" smooth="yes"/>
      <point x="124" y="649"/>
      <point x="114" y="494"/>
      <point x="116" y="492" type="curve" smooth="yes"/>
      <point x="121" y="487"/>
      <point x="128" y="489"/>
      <point x="141" y="489" type="curve" smooth="yes"/>
      <point x="154" y="489"/>
      <point x="159" y="489"/>
      <point x="165" y="492" type="curve" smooth="yes"/>
      <point x="169" y="494"/>
      <point x="182" y="531"/>
      <point x="188" y="542" type="curve"/>
      <point x="191" y="550"/>
      <point x="197" y="554"/>
      <point x="204" y="554" type="curve"/>
      <point x="379" y="554" type="line"/>
      <point x="387" y="554"/>
      <point x="394" y="545"/>
      <point x="389" y="540" type="curve"/>
      <point x="181" y="375" type="line"/>
      <point x="177" y="371"/>
      <point x="173" y="363"/>
      <point x="177" y="357" type="curve"/>
      <point x="221" y="290" type="line"/>
      <point x="226" y="281"/>
      <point x="233" y="278"/>
      <point x="241" y="283" type="curve" smooth="yes"/>
      <point x="259" y="294"/>
      <point x="275" y="311"/>
      <point x="333" y="311" type="curve"/>
      <point x="393" y="311"/>
      <point x="436" y="267"/>
      <point x="436" y="209" type="curve"/>
      <point x="436" y="156"/>
      <point x="389" y="85"/>
      <point x="294" y="85" type="curve"/>
      <point x="194" y="85"/>
      <point x="158" y="158"/>
      <point x="152" y="187" type="curve" smooth="yes"/>
      <point x="150" y="195"/>
      <point x="124" y="172"/>
      <point x="117" y="165" type="curve"/>
      <point x="107" y="155"/>
      <point x="103" y="138"/>
      <point x="103" y="129" type="curve"/>
      <point x="103" y="80"/>
      <point x="172" y="-12"/>
    </contour>
  </outline>
</glyph>
<glyph name="eight" format="1">
  <advance width="661"/>
  <unicode hex="0038"/>
  <outline>
    <contour>
      <point x="326" y="-13" type="curve" smooth="yes"/>
      <point x="490" y="-13"/>
      <point x="584" y="87"/>
      <point x="584" y="201" type="curve" smooth="yes"/>
      <point x="584" y="294"/>
      <point x="501" y="373"/>
      <point x="426" y="373" type="curve"/>
      <point x="427" y="356" type="line"/>
      <point x="502" y="356"/>
      <point x="556" y="412"/>
      <point x="556" y="503" type="curve"/>
      <point x="556" y="582"/>
      <point x="479" y="666"/>
      <point x="333" y="666" type="curve"/>
      <point x="175" y="666"/>
      <point x="106" y="584"/>
      <point x="106" y="503" type="curve"/>
      <point x="106" y="417"/>
      <point x="159" y="357"/>
      <point x="234" y="357" type="curve"/>
      <point x="235" y="377" type="line"/>
      <point x="159" y="377"/>
      <point x="77" y="296"/>
      <point x="77" y="201" type="curve" smooth="yes"/>
      <point x="77" y="87"/>
      <point x="170" y="-13"/>
    </contour>
    <contour>
      <point x="252" y="402"/>
      <point x="208" y="442"/>
      <point x="208" y="497" type="curve" smooth="yes"/>
      <point x="208" y="554"/>
      <point x="253" y="587"/>
      <point x="331" y="587" type="curve"/>
      <point x="406" y="587"/>
      <point x="457" y="556"/>
      <point x="457" y="497" type="curve" smooth="yes"/>
      <point x="457" y="443"/>
      <point x="404" y="402"/>
      <point x="329" y="402" type="curve" smooth="yes"/>
    </contour>
    <contour>
      <point x="327" y="324" type="curve" smooth="yes"/>
      <point x="416" y="324"/>
      <point x="476" y="270"/>
      <point x="476" y="201" type="curve" smooth="yes"/>
      <point x="476" y="129"/>
      <point x="420" y="73"/>
      <point x="326" y="73" type="curve" smooth="yes"/>
      <point x="239" y="73"/>
      <point x="179" y="130"/>
      <point x="179" y="201" type="curve" smooth="yes"/>
      <point x="179" y="268"/>
      <point x="236" y="324"/>
    </contour>
  </outline>
</glyph>
<glyph name="colon" format="1">
  <advance width="444"/>
  <unicode hex="003A"/>
  <outline>
    <contour>
      <point x="225" y="84" type="curve"/>
      <point x="282" y="84"/>
      <point x="302" y="101"/>
      <point x="302" y="163" type="curve" smooth="yes"/>
      <point x="302" y="224"/>
      <point x="282" y="240"/>
      <point x="223" y="240" type="curve" smooth="yes"/>
      <point x="166" y="240"/>
      <point x="145" y="224"/>
      <point x="145" y="163" type="curve" smooth="yes"/>
      <point x="145" y="101"/>
      <point x="166" y="84"/>
    </contour>
    <contour>
      <point x="225" y="354" type="curve"/>
      <point x="282" y="354"/>
      <point x="302" y="371"/>
      <point x="302" y="433" type="curve" smooth="yes"/>
      <point x="302" y="494"/>
      <point x="282" y="510"/>
      <point x="223" y="510" type="curve" smooth="yes"/>
      <point x="166" y="510"/>
      <point x="145" y="494"/>
      <point x="145" y="433" type="curve" smooth="yes"/>
      <point x="145" y="371"/>
      <point x="166" y="354"/>
    </contour>
  </outline>
</glyph>
<glyph name="question" format="1">
  <advance width="497"/>
  <unicode hex="003F"/>
  <outline>
    <contour>
      <point x="286" y="199" type="curve"/>
      <point x="286" y="226"/>
      <point x="286" y="237"/>
      <point x="286" y="260" type="curve" smooth="yes"/>
      <point x="286" y="347"/>
      <point x="464" y="404"/>
      <point x="464" y="546" type="curve"/>
      <point x="464" y="684"/>
      <point x="389" y="758"/>
      <point x="239" y="758" type="curve"/>
      <point x="103" y="758"/>
      <point x="25" y="677"/>
      <point x="25" y="666" type="curve"/>
      <point x="48" y="538" type="line"/>
      <point x="135" y="538" type="line"/>
      <point x="135" y="587"/>
      <point x="149" y="659"/>
      <point x="231" y="659" type="curve"/>
      <point x="303" y="659"/>
      <point x="327" y="612"/>
      <point x="327" y="545" type="curve"/>
      <point x="327" y="459"/>
      <point x="182" y="412"/>
      <point x="182" y="275" type="curve" smooth="yes"/>
      <point x="182" y="220"/>
      <point x="182" y="251"/>
      <point x="182" y="198" type="curve"/>
      <point x="182" y="191"/>
      <point x="187" y="188"/>
      <point x="195" y="188" type="curve"/>
      <point x="272" y="188" type="line"/>
      <point x="282" y="188"/>
      <point x="286" y="192"/>
    </contour>
    <contour>
      <point x="234" y="-18" type="curve"/>
      <point x="291" y="-18"/>
      <point x="311" y="-1"/>
      <point x="311" y="61" type="curve" smooth="yes"/>
      <point x="311" y="122"/>
      <point x="291" y="138"/>
      <point x="232" y="138" type="curve" smooth="yes"/>
      <point x="175" y="138"/>
      <point x="154" y="122"/>
      <point x="154" y="61" type="curve" smooth="yes"/>
      <point x="154" y="-1"/>
      <point x="175" y="-18"/>
    </contour>
  </outline>
</glyph>
<glyph name="A" format="1">
  <advance width="843"/>
  <unicode hex="0041"/>
  <outline>
    <contour>
      <point x="359" y="700" type="line"/>
      <point x="129" y="113" type="line" smooth="yes"/>
      <point x="121" y="92"/>
      <point x="90" y="69"/>
      <point x="49" y="69" type="curve"/>
      <point x="49" y="0" type="line"/>
      <point x="298" y="0" type="line"/>
      <point x="298" y="69" type="line"/>
      <point x="252" y="69"/>
      <point x="217" y="83"/>
      <point x="228" y="113" type="curve" smooth="yes"/>
      <point x="411" y="608" type="line"/>
      <point x="397" y="608" type="line"/>
      <point x="609" y="112" type="line" smooth="yes"/>
      <point x="621" y="84"/>
      <point x="579" y="69"/>
      <point x="551" y="69" type="curve"/>
      <point x="551" y="0" type="line"/>
      <point x="788" y="0" type="line"/>
      <point x="788" y="69" type="line"/>
      <point x="759" y="69"/>
      <point x="729" y="79"/>
      <point x="714" y="113" type="curve" smooth="yes"/>
      <point x="460" y="700" type="line"/>
    </contour>
    <contour>
      <point x="229" y="296" type="line"/>
      <point x="229" y="217" type="line"/>
      <point x="616" y="217" type="line"/>
      <point x="616" y="296" type="line"/>
    </contour>
  </outline>
</glyph>
<glyph name="B" format="1">
  <advance width="697"/>
  <unicode hex="0042"/>
  <outline>
    <contour>
      <point x="334" y="411" type="curve" smooth="yes"/>
      <point x="308" y="411"/>
      <point x="287" y="412"/>
      <point x="243" y="415" type="curve"/>
      <point x="273" y="383" type="line"/>
      <point x="271" y="648" type="line"/>
      <point x="241" y="618" type="line"/>
      <point x="268" y="630"/>
      <point x="321" y="636"/>
      <point x="348" y="636" type="curve" smooth="yes"/>
      <point x="428" y="636"/>
      <point x="473" y="589"/>
      <point x="473" y="523" type="curve" smooth="yes"/>
      <point x="473" y="465"/>
      <point x="417" y="411"/>
    </contour>
    <contour>
      <point x="330" y="71" type="curve"/>
      <point x="291" y="71"/>
      <point x="275" y="85"/>
      <point x="275" y="96" type="curve"/>
      <point x="273" y="358" type="line"/>
      <point x="249" y="329" type="line"/>
      <point x="270" y="335"/>
      <point x="313" y="334"/>
      <point x="341" y="334" type="curve"/>
      <point x="418" y="334"/>
      <point x="492" y="297"/>
      <point x="492" y="215" type="curve"/>
      <point x="492" y="131"/>
      <point x="433" y="71"/>
    </contour>
    <contour>
      <point x="370" y="0" type="line"/>
      <point x="504" y="0"/>
      <point x="585" y="97"/>
      <point x="585" y="219" type="curve"/>
      <point x="585" y="328"/>
      <point x="502" y="386"/>
      <point x="401" y="386" type="curve"/>
      <point x="402" y="367" type="line"/>
      <point x="488" y="367"/>
      <point x="562" y="460"/>
      <point x="562" y="526" type="curve" smooth="yes"/>
      <point x="562" y="645"/>
      <point x="501" y="708"/>
      <point x="363" y="708" type="curve"/>
      <point x="279" y="708"/>
      <point x="166" y="700"/>
      <point x="109" y="700" type="curve"/>
      <point x="109" y="651" type="line"/>
      <point x="150" y="651"/>
      <point x="179" y="630"/>
      <point x="179" y="599" type="curve"/>
      <point x="179" y="92" type="line" smooth="yes"/>
      <point x="179" y="58"/>
      <point x="145" y="49"/>
      <point x="109" y="49" type="curve"/>
      <point x="109" y="0" type="line"/>
    </contour>
  </outline>
</glyph>
<glyph name="C" format="1">
  <advance width="785"/>
  <unicode hex="0043"/>
  <outline>
    <contour>
      <point x="645" y="584"/>
      <point x="576" y="639"/>
      <point x="474" y="637" type="curve"/>
      <point x="321" y="637"/>
      <point x="200" y="525"/>
      <point x="200" y="359" type="curve"/>
      <point x="200" y="169"/>
      <point x="320" y="73"/>
      <point x="466" y="73" type="curve"/>
      <point x="573" y="73"/>
      <point x="641" y="108"/>
      <point x="667" y="133" type="curve"/>
      <point x="710" y="74" type="line"/>
      <point x="683" y="44"/>
      <point x="607" y="-18"/>
      <point x="450" y="-18" type="curve"/>
      <point x="253" y="-18"/>
      <point x="90" y="119"/>
      <point x="90" y="357" type="curve"/>
      <point x="90" y="590"/>
      <point x="289" y="720"/>
      <point x="481" y="720" type="curve" smooth="yes"/>
      <point x="572" y="720"/>
      <point x="629" y="707"/>
      <point x="697" y="665" type="curve"/>
      <point x="702" y="665"/>
      <point x="697" y="492"/>
      <point x="694" y="491" type="curve"/>
      <point x="645" y="491" type="line"/>
    </contour>
  </outline>
</glyph>
<glyph name="D" format="1">
  <advance width="767"/>
  <unicode hex="0044"/>
  <outline>
    <contour>
      <point x="347" y="-3" type="curve" smooth="yes"/>
      <point x="524" y="-3"/>
      <point x="717" y="112"/>
      <point x="717" y="362" type="curve"/>
      <point x="717" y="583"/>
      <point x="559" y="712"/>
      <point x="355" y="712" type="curve"/>
      <point x="251" y="712"/>
      <point x="73" y="700"/>
      <point x="35" y="700" type="curve"/>
      <point x="35" y="651" type="line"/>
      <point x="76" y="651"/>
      <point x="115" y="632"/>
      <point x="115" y="597" type="curve"/>
      <point x="115" y="105" type="line" smooth="yes"/>
      <point x="115" y="71"/>
      <point x="69" y="52"/>
      <point x="31" y="52" type="curve"/>
      <point x="31" y="0" type="line"/>
      <point x="150" y="0"/>
      <point x="241" y="-3"/>
    </contour>
    <contour>
      <point x="274" y="67"/>
      <point x="213" y="76"/>
      <point x="213" y="106" type="curve" smooth="yes"/>
      <point x="217" y="616" type="line"/>
      <point x="217" y="632"/>
      <point x="267" y="639"/>
      <point x="354" y="639" type="curve"/>
      <point x="512" y="639"/>
      <point x="610" y="525"/>
      <point x="610" y="368" type="curve"/>
      <point x="610" y="164"/>
      <point x="483" y="67"/>
      <point x="355" y="67" type="curve" smooth="yes"/>
    </contour>
  </outline>
</glyph>
<glyph name="E" format="1">
  <advance width="571"/>
  <unicode hex="0045"/>
  <outline>
    <contour>
      <point x="219" y="619" type="line"/>
      <point x="415" y="619" type="line"/>
      <point x="448" y="619"/>
      <point x="474" y="604"/>
      <point x="474" y="546" type="curve"/>
      <point x="523" y="542" type="line"/>
      <point x="515" y="700" type="line"/>
      <point x="38" y="700" type="line"/>
      <point x="38" y="648" type="line"/>
      <point x="77" y="648"/>
      <point x="117" y="633"/>
      <point x="117" y="598" type="curve"/>
      <point x="117" y="100" type="line" smooth="yes"/>
      <point x="117" y="66"/>
      <point x="75" y="49"/>
      <point x="38" y="49" type="curve"/>
      <point x="38" y="0" type="line"/>
      <point x="524" y="0" type="line"/>
      <point x="538" y="161" type="line"/>
      <point x="484" y="161" type="line"/>
      <point x="484" y="119"/>
      <point x="459" y="77"/>
      <point x="406" y="77" type="curve"/>
      <point x="219" y="77" type="line"/>
    </contour>
    <contour>
      <point x="482" y="276" type="line"/>
      <point x="482" y="452" type="line"/>
      <point x="444" y="452" type="line"/>
      <point x="444" y="420"/>
      <point x="424" y="406"/>
      <point x="397" y="406" type="curve"/>
      <point x="161" y="406" type="line"/>
      <point x="161" y="327" type="line"/>
      <point x="395" y="327" type="line"/>
      <point x="426" y="327"/>
      <point x="444" y="299"/>
      <point x="444" y="276" type="curve"/>
    </contour>
  </outline>
</glyph>
<glyph name="F" format="1">
  <advance width="642"/>
  <unicode hex="0046"/>
  <outline>
    <contour>
      <point x="511" y="228" type="line"/>
      <point x="511" y="422" type="line"/>
      <point x="456" y="422" type="line"/>
      <point x="456" y="396"/>
      <point x="440" y="376"/>
      <point x="417" y="376" type="curve"/>
      <point x="206" y="376" type="line"/>
      <point x="206" y="289" type="line"/>
      <point x="413" y="289" type="line"/>
      <point x="443" y="289"/>
      <point x="456" y="260"/>
      <point x="456" y="228" type="curve"/>
    </contour>
    <contour>
      <point x="264" y="117" type="curve"/>
      <point x="264" y="616" type="line"/>
      <point x="442" y="616" type="line"/>
      <point x="476" y="616"/>
      <point x="498" y="568"/>
      <point x="498" y="543" type="curve"/>
      <point x="563" y="543" type="line"/>
      <point x="549" y="700" type="line"/>
      <point x="102" y="700" type="line"/>
      <point x="102" y="622" type="line"/>
      <point x="134" y="622"/>
      <point x="172" y="613"/>
      <point x="172" y="579" type="curve"/>
      <point x="172" y="117" type="line"/>
      <point x="172" y="83"/>
      <point x="154" y="69"/>
      <point x="118" y="69" type="curve"/>
      <point x="118" y="0" type="line"/>
      <point x="349" y="0" type="line"/>
      <point x="349" y="69" type="line"/>
      <point x="300" y="69"/>
      <point x="264" y="83"/>
    </contour>
  </outline>
</glyph>
<glyph name="G" format="1">
  <advance width="805"/>
  <unicode hex="0047"/>
  <outline>
    <contour>
      <point x="585" y="622" type="line"/>
      <point x="621" y="573" type="line"/>
      <point x="606" y="573"/>
      <point x="565" y="634"/>
      <point x="455" y="634" type="curve"/>
      <point x="329" y="634"/>
      <point x="191" y="538"/>
      <point x="191" y="329" type="curve"/>
      <point x="191" y="173"/>
      <point x="302" y="72"/>
      <point x="448" y="72" type="curve"/>
      <point x="537" y="72"/>
      <point x="587" y="98"/>
      <point x="613" y="123" type="curve"/>
      <point x="613" y="295" type="line"/>
      <point x="661" y="268" type="line"/>
      <point x="476" y="268" type="line"/>
      <point x="476" y="356" type="line"/>
      <point x="704" y="356" type="line"/>
      <point x="704" y="80" type="line"/>
      <point x="677" y="50"/>
      <point x="594" y="-18"/>
      <point x="448" y="-18" type="curve"/>
      <point x="240" y="-18"/>
      <point x="84" y="119"/>
      <point x="84" y="335" type="curve"/>
      <point x="84" y="590"/>
      <point x="273" y="721"/>
      <point x="459" y="721" type="curve"/>
      <point x="571" y="721"/>
      <point x="641" y="687"/>
      <point x="690" y="648" type="curve"/>
      <point x="682" y="485" type="line"/>
      <point x="609" y="485" type="line"/>
    </contour>
  </outline>
</glyph>
<glyph name="H" format="1">
  <advance width="876"/>
  <unicode hex="0048"/>
  <outline>
    <contour>
      <point x="209" y="424" type="line"/>
      <point x="209" y="340" type="line"/>
      <point x="646" y="340" type="line"/>
      <point x="646" y="424" type="line"/>
    </contour>
    <contour>
      <point x="350" y="0" type="line"/>
      <point x="350" y="49" type="line"/>
      <point x="307" y="49"/>
      <point x="274" y="67"/>
      <point x="274" y="100" type="curve" smooth="yes"/>
      <point x="274" y="607" type="line"/>
      <point x="274" y="636"/>
      <point x="301" y="649"/>
      <point x="347" y="649" type="curve"/>
      <point x="347" y="700" type="line"/>
      <point x="106" y="700" type="line"/>
      <point x="106" y="649" type="line"/>
      <point x="145" y="649"/>
      <point x="176" y="633"/>
      <point x="176" y="607" type="curve"/>
      <point x="176" y="100" type="line" smooth="yes"/>
      <point x="176" y="66"/>
      <point x="147" y="49"/>
      <point x="106" y="49" type="curve"/>
      <point x="106" y="0" type="line"/>
    </contour>
    <contour>
      <point x="762" y="0" type="line"/>
      <point x="762" y="49" type="line"/>
      <point x="720" y="49"/>
      <point x="692" y="67"/>
      <point x="692" y="101" type="curve" smooth="yes"/>
      <point x="692" y="607" type="line"/>
      <point x="692" y="633"/>
      <point x="717" y="649"/>
      <point x="762" y="649" type="curve"/>
      <point x="762" y="700" type="line"/>
      <point x="521" y="700" type="line"/>
      <point x="521" y="649" type="line"/>
      <point x="569" y="649"/>
      <point x="594" y="637"/>
      <point x="594" y="607" type="curve"/>
      <point x="594" y="101" type="line" smooth="yes"/>
      <point x="594" y="68"/>
      <point x="566" y="49"/>
      <point x="521" y="49" type="curve"/>
      <point x="521" y="0" type="line"/>
    </contour>
  </outline>
</glyph>
<glyph name="I" format="1">
  <advance width="362"/>
  <unicode hex="0049"/>
  <outline>
    <contour>
      <point x="303" y="0" type="line"/>
      <point x="303" y="49" type="line"/>
      <point x="260" y="49"/>
      <point x="228" y="67"/>
      <point x="228" y="100" type="curve" smooth="yes"/>
      <point x="228" y="607" type="line"/>
      <point x="228" y="636"/>
      <point x="256" y="649"/>
      <point x="302" y="649" type="curve"/>
      <point x="302" y="700" type="line"/>
      <point x="63" y="700" type="line"/>
      <point x="63" y="649" type="line"/>
      <point x="102" y="649"/>
      <point x="130" y="633"/>
      <point x="130" y="607" type="curve"/>
      <point x="130" y="100" type="line" smooth="yes"/>
      <point x="130" y="66"/>
      <point x="101" y="49"/>
      <point x="60" y="49" type="curve"/>
      <point x="60" y="0" type="line"/>
    </contour>
  </outline>
</glyph>
<glyph name="J" format="1">
  <advance width="340"/>
  <unicode hex="004A"/>
  <outline>
    <contour>
      <point x="118" y="590" type="curve"/>
      <point x="118" y="92" type="line"/>
      <point x="118" y="-29"/>
      <point x="25" y="-84"/>
      <point x="-53" y="-84" type="curve"/>
      <point x="-53" y="-154" type="line"/>
      <point x="75" y="-154"/>
      <point x="223" y="-71"/>
      <point x="223" y="100" type="curve"/>
      <point x="223" y="590" type="line"/>
      <point x="223" y="630"/>
      <point x="246" y="650"/>
      <point x="303" y="650" type="curve"/>
      <point x="303" y="700" type="line"/>
      <point x="38" y="700" type="line"/>
      <point x="38" y="650" type="line"/>
      <point x="88" y="650"/>
      <point x="118" y="629"/>
    </contour>
  </outline>
</glyph>
<glyph name="K" format="1">
  <advance width="681"/>
  <unicode hex="004B"/>
  <outline>
    <contour>
      <point x="298" y="0" type="line"/>
      <point x="298" y="49" type="line"/>
      <point x="250" y="49"/>
      <point x="217" y="72"/>
      <point x="217" y="115" type="curve" smooth="yes"/>
      <point x="217" y="598" type="line"/>
      <point x="217" y="630"/>
      <point x="241" y="650"/>
      <point x="285" y="650" type="curve"/>
      <point x="285" y="700" type="line"/>
      <point x="52" y="700" type="line"/>
      <point x="52" y="650" type="line"/>
      <point x="99" y="650"/>
      <point x="122" y="632"/>
      <point x="122" y="598" type="curve"/>
      <point x="122" y="112" type="line" smooth="yes"/>
      <point x="122" y="68"/>
      <point x="102" y="49"/>
      <point x="52" y="49" type="curve"/>
      <point x="52" y="0" type="line"/>
    </contour>
    <contour>
      <point x="671" y="0" type="line"/>
      <point x="671" y="49" type="line"/>
      <point x="637" y="49"/>
      <point x="611" y="53"/>
      <point x="587" y="92" type="curve" smooth="yes"/>
      <point x="379" y="425" type="line"/>
      <point x="313" y="357" type="line"/>
      <point x="525" y="0" type="line"/>
    </contour>
    <contour>
      <point x="217" y="203" type="line"/>
      <point x="307" y="298"/>
      <point x="526" y="580"/>
      <point x="555" y="614" type="curve" smooth="yes"/>
      <point x="583" y="645"/>
      <point x="608" y="650"/>
      <point x="635" y="650" type="curve"/>
      <point x="635" y="700" type="line"/>
      <point x="409" y="700" type="line"/>
      <point x="409" y="649" type="line"/>
      <point x="436" y="649" type="line"/>
      <point x="461" y="649"/>
      <point x="459" y="623"/>
      <point x="455" y="616" type="curve" smooth="yes"/>
      <point x="449" y="607"/>
      <point x="263" y="375"/>
      <point x="193" y="304" type="curve"/>
    </contour>
  </outline>
</glyph>
<glyph name="L" format="1">
  <advance width="557"/>
  <unicode hex="004C"/>
  <outline>
    <contour>
      <point x="224" y="606" type="line"/>
      <point x="225" y="633"/>
      <point x="242" y="650"/>
      <point x="292" y="650" type="curve"/>
      <point x="292" y="700" type="line"/>
      <point x="52" y="700" type="line"/>
      <point x="52" y="650" type="line"/>
      <point x="97" y="650"/>
      <point x="123" y="633"/>
      <point x="122" y="606" type="curve"/>
      <point x="122" y="92" type="line"/>
      <point x="122" y="58"/>
      <point x="86" y="49"/>
      <point x="52" y="49" type="curve"/>
      <point x="52" y="0" type="line"/>
      <point x="509" y="0" type="line"/>
      <point x="523" y="157" type="line"/>
      <point x="474" y="157" type="line"/>
      <point x="474" y="119"/>
      <point x="447" y="84"/>
      <point x="405" y="84" type="curve"/>
      <point x="224" y="84" type="line"/>
    </contour>
  </outline>
</glyph>
<glyph name="M" format="1">
  <advance width="1081"/>
  <unicode hex="004D"/>
  <outline>
    <contour>
      <point x="884" y="605" type="line"/>
      <point x="884" y="616"/>
      <point x="887" y="622"/>
      <point x="896" y="626" type="curve" smooth="yes"/>
      <point x="907" y="631"/>
      <point x="956" y="647"/>
      <point x="958" y="651" type="curve" smooth="yes"/>
      <point x="961" y="657"/>
      <point x="961" y="662"/>
      <point x="961" y="675" type="curve" smooth="yes"/>
      <point x="961" y="688"/>
      <point x="960" y="694"/>
      <point x="958" y="700" type="curve"/>
      <point x="771" y="700" type="line"/>
      <point x="537" y="132" type="line"/>
      <point x="562" y="133" type="line"/>
      <point x="316" y="700" type="line"/>
      <point x="130" y="700" type="line"/>
      <point x="128" y="694"/>
      <point x="127" y="688"/>
      <point x="127" y="675" type="curve" smooth="yes"/>
      <point x="127" y="662"/>
      <point x="127" y="657"/>
      <point x="130" y="651" type="curve" smooth="yes"/>
      <point x="132" y="647"/>
      <point x="181" y="631"/>
      <point x="192" y="626" type="curve" smooth="yes"/>
      <point x="201" y="622"/>
      <point x="204" y="616"/>
      <point x="204" y="605" type="curve"/>
      <point x="148" y="92" type="line"/>
      <point x="148" y="81"/>
      <point x="142" y="77"/>
      <point x="135" y="74" type="curve"/>
      <point x="121" y="67"/>
      <point x="80" y="53"/>
      <point x="78" y="49" type="curve" smooth="yes"/>
      <point x="75" y="43"/>
      <point x="75" y="38"/>
      <point x="75" y="25" type="curve" smooth="yes"/>
      <point x="75" y="12"/>
      <point x="76" y="6"/>
      <point x="78" y="0" type="curve"/>
      <point x="323" y="0" type="line"/>
      <point x="325" y="6"/>
      <point x="326" y="12"/>
      <point x="326" y="25" type="curve" smooth="yes"/>
      <point x="326" y="38"/>
      <point x="326" y="43"/>
      <point x="323" y="49" type="curve" smooth="yes"/>
      <point x="321" y="53"/>
      <point x="272" y="69"/>
      <point x="261" y="74" type="curve" smooth="yes"/>
      <point x="252" y="78"/>
      <point x="248" y="84"/>
      <point x="249" y="95" type="curve" smooth="yes"/>
      <point x="287" y="542" type="line"/>
      <point x="271" y="540" type="line"/>
      <point x="500" y="7" type="line"/>
      <point x="579" y="7" type="line"/>
      <point x="806" y="539" type="line"/>
      <point x="790" y="541" type="line"/>
      <point x="830" y="95" type="line"/>
      <point x="830" y="84"/>
      <point x="827" y="78"/>
      <point x="818" y="74" type="curve" smooth="yes"/>
      <point x="807" y="69"/>
      <point x="758" y="53"/>
      <point x="756" y="49" type="curve" smooth="yes"/>
      <point x="753" y="43"/>
      <point x="753" y="38"/>
      <point x="753" y="25" type="curve" smooth="yes"/>
      <point x="753" y="12"/>
      <point x="754" y="6"/>
      <point x="756" y="0" type="curve"/>
      <point x="1005" y="0" type="line"/>
      <point x="1007" y="6"/>
      <point x="1008" y="12"/>
      <point x="1008" y="25" type="curve" smooth="yes"/>
      <point x="1008" y="38"/>
      <point x="1008" y="43"/>
      <point x="1005" y="49" type="curve" smooth="yes"/>
      <point x="1003" y="53"/>
      <point x="962" y="67"/>
      <point x="948" y="74" type="curve"/>
      <point x="941" y="77"/>
      <point x="935" y="81"/>
      <point x="935" y="92" type="curve"/>
    </contour>
  </outline>
</glyph>
<glyph name="N" format="1">
  <advance width="883"/>
  <unicode hex="004E"/>
  <outline>
    <contour>
      <point x="637" y="598" type="line"/>
      <point x="637" y="639"/>
      <point x="603" y="650"/>
      <point x="563" y="650" type="curve"/>
      <point x="563" y="699" type="line"/>
      <point x="827" y="699" type="line"/>
      <point x="827" y="650" type="line"/>
      <point x="788" y="650"/>
      <point x="733" y="643"/>
      <point x="733" y="598" type="curve"/>
      <point x="733" y="0" type="line"/>
      <point x="644" y="0" type="line"/>
      <point x="233" y="565" type="line"/>
      <point x="247" y="567" type="line"/>
      <point x="259" y="116" type="line"/>
      <point x="259" y="68"/>
      <point x="292" y="49"/>
      <point x="356" y="49" type="curve"/>
      <point x="356" y="0" type="line"/>
      <point x="90" y="0" type="line"/>
      <point x="90" y="49" type="line"/>
      <point x="135" y="49"/>
      <point x="160" y="66"/>
      <point x="160" y="100" type="curve"/>
      <point x="160" y="589" type="line"/>
      <point x="160" y="629"/>
      <point x="135" y="648"/>
      <point x="93" y="648" type="curve"/>
      <point x="93" y="700" type="line"/>
      <point x="265" y="700" type="line"/>
      <point x="664" y="138" type="line"/>
      <point x="640" y="135" type="line"/>
    </contour>
  </outline>
</glyph>
<glyph name="O" format="1">
  <advance width="795"/>
  <unicode hex="004F"/>
  <outline>
    <contour>
      <point x="576" y="-18"/>
      <point x="742" y="99"/>
      <point x="742" y="346" type="curve" smooth="yes"/>
      <point x="742" y="613"/>
      <point x="563" y="713"/>
      <point x="390" y="713" type="curve"/>
      <point x="225" y="713"/>
      <point x="54" y="584"/>
      <point x="54" y="357" type="curve" smooth="yes"/>
      <point x="54" y="91"/>
      <point x="245" y="-18"/>
      <point x="399" y="-18" type="curve"/>
    </contour>
    <contour>
      <point x="157" y="356" type="curve" smooth="yes"/>
      <point x="157" y="535"/>
      <point x="279" y="625"/>
      <point x="392" y="625" type="curve"/>
      <point x="505" y="625"/>
      <point x="641" y="547"/>
      <point x="641" y="346" type="curve" smooth="yes"/>
      <point x="641" y="161"/>
      <point x="518" y="70"/>
      <point x="399" y="70" type="curve"/>
      <point x="300" y="70"/>
      <point x="157" y="155"/>
    </contour>
  </outline>
</glyph>
<glyph name="P" format="1">
  <advance width="640"/>
  <unicode hex="0050"/>
  <outline>
    <contour>
      <point x="231" y="238" type="line"/>
      <point x="231" y="233"/>
      <point x="261" y="223"/>
      <point x="318" y="223" type="curve"/>
      <point x="433" y="223"/>
      <point x="606" y="291"/>
      <point x="606" y="494" type="curve"/>
      <point x="606" y="649"/>
      <point x="486" y="706"/>
      <point x="331" y="706" type="curve"/>
      <point x="247" y="706"/>
      <point x="101" y="700"/>
      <point x="76" y="700" type="curve"/>
      <point x="76" y="622" type="line"/>
      <point x="114" y="622"/>
      <point x="150" y="601"/>
      <point x="150" y="578" type="curve"/>
      <point x="150" y="122" type="line" smooth="yes"/>
      <point x="150" y="88"/>
      <point x="121" y="69"/>
      <point x="86" y="69" type="curve"/>
      <point x="86" y="0" type="line"/>
      <point x="325" y="0" type="line"/>
      <point x="325" y="69" type="line"/>
      <point x="279" y="69"/>
      <point x="250" y="87"/>
      <point x="250" y="125" type="curve" smooth="yes"/>
      <point x="248" y="637" type="line"/>
      <point x="232" y="614" type="line"/>
      <point x="249" y="618"/>
      <point x="309" y="621"/>
      <point x="349" y="621" type="curve" smooth="yes"/>
      <point x="424" y="621"/>
      <point x="499" y="573"/>
      <point x="499" y="479" type="curve"/>
      <point x="499" y="360"/>
      <point x="390" y="308"/>
      <point x="308" y="308" type="curve"/>
      <point x="265" y="308"/>
      <point x="231" y="311"/>
      <point x="231" y="316" type="curve"/>
    </contour>
  </outline>
</glyph>
<glyph name="Q" format="1">
  <advance width="874"/>
  <unicode hex="0051"/>
  <outline>
    <contour>
      <point x="610" y="-14"/>
      <point x="781" y="99"/>
      <point x="781" y="346" type="curve" smooth="yes"/>
      <point x="781" y="613"/>
      <point x="602" y="713"/>
      <point x="429" y="713" type="curve"/>
      <point x="264" y="713"/>
      <point x="93" y="584"/>
      <point x="93" y="357" type="curve" smooth="yes"/>
      <point x="93" y="91"/>
      <point x="284" y="-14"/>
      <point x="438" y="-14" type="curve"/>
    </contour>
    <contour>
      <point x="200" y="356" type="curve" smooth="yes"/>
      <point x="200" y="529"/>
      <point x="321" y="620"/>
      <point x="431" y="620" type="curve"/>
      <point x="541" y="620"/>
      <point x="676" y="541"/>
      <point x="676" y="346" type="curve" smooth="yes"/>
      <point x="676" y="167"/>
      <point x="555" y="75"/>
      <point x="439" y="75" type="curve"/>
      <point x="338" y="75"/>
      <point x="200" y="161"/>
    </contour>
    <contour>
      <point x="936" y="-66" type="curve"/>
      <point x="814" y="-62"/>
      <point x="582" y="-21"/>
      <point x="537" y="17" type="curve"/>
      <point x="357" y="7" type="line"/>
      <point x="332" y="3" type="line"/>
      <point x="356" y="-4"/>
      <point x="670" y="-121"/>
      <point x="769" y="-152" type="curve"/>
      <point x="780" y="-154"/>
      <point x="790" y="-154"/>
      <point x="801" y="-152" type="curve"/>
      <point x="935" y="-116" type="line"/>
      <point x="939" y="-113"/>
      <point x="943" y="-106"/>
      <point x="943" y="-94" type="curve"/>
      <point x="943" y="-81"/>
      <point x="944" y="-67"/>
    </contour>
  </outline>
</glyph>
<glyph name="R" format="1">
  <advance width="756"/>
  <unicode hex="0052"/>
  <outline>
    <contour>
      <point x="699" y="0" type="line"/>
      <point x="701" y="6"/>
      <point x="702" y="12"/>
      <point x="702" y="25" type="curve" smooth="yes"/>
      <point x="702" y="38"/>
      <point x="701" y="44"/>
      <point x="696" y="49" type="curve" smooth="yes"/>
      <point x="692" y="53"/>
      <point x="650" y="69"/>
      <point x="636" y="74" type="curve" smooth="yes"/>
      <point x="627" y="77"/>
      <point x="621" y="84"/>
      <point x="614" y="92" type="curve" smooth="yes"/>
      <point x="605" y="103"/>
      <point x="488" y="283"/>
      <point x="445" y="346" type="curve"/>
      <point x="357" y="291" type="line"/>
      <point x="541" y="9" type="line"/>
      <point x="544" y="4"/>
      <point x="548" y="1"/>
      <point x="553" y="0" type="curve"/>
    </contour>
    <contour>
      <point x="351" y="348" type="curve" smooth="yes"/>
      <point x="315" y="348"/>
      <point x="267" y="349"/>
      <point x="256" y="352" type="curve"/>
      <point x="269" y="326" type="line"/>
      <point x="267" y="637" type="line"/>
      <point x="251" y="614" type="line"/>
      <point x="274" y="623"/>
      <point x="334" y="622"/>
      <point x="368" y="622" type="curve" smooth="yes"/>
      <point x="443" y="622"/>
      <point x="515" y="586"/>
      <point x="515" y="497" type="curve" smooth="yes"/>
      <point x="515" y="401"/>
      <point x="433" y="348"/>
    </contour>
    <contour>
      <point x="338" y="25" type="curve" smooth="yes"/>
      <point x="338" y="38"/>
      <point x="338" y="43"/>
      <point x="335" y="49" type="curve" smooth="yes"/>
      <point x="333" y="53"/>
      <point x="295" y="68"/>
      <point x="284" y="74" type="curve"/>
      <point x="275" y="77"/>
      <point x="269" y="84"/>
      <point x="269" y="95" type="curve" smooth="yes"/>
      <point x="269" y="287" type="line"/>
      <point x="247" y="270" type="line"/>
      <point x="258" y="259"/>
      <point x="313" y="259"/>
      <point x="365" y="259" type="curve" smooth="yes"/>
      <point x="482" y="259"/>
      <point x="616" y="351"/>
      <point x="616" y="504" type="curve" smooth="yes"/>
      <point x="616" y="646"/>
      <point x="505" y="708"/>
      <point x="350" y="708" type="curve"/>
      <point x="266" y="708"/>
      <point x="110" y="704"/>
      <point x="95" y="700" type="curve"/>
      <point x="93" y="694"/>
      <point x="92" y="688"/>
      <point x="92" y="675" type="curve" smooth="yes"/>
      <point x="92" y="662"/>
      <point x="92" y="657"/>
      <point x="95" y="651" type="curve" smooth="yes"/>
      <point x="97" y="647"/>
      <point x="139" y="632"/>
      <point x="154" y="623" type="curve"/>
      <point x="161" y="620"/>
      <point x="165" y="614"/>
      <point x="165" y="607" type="curve"/>
      <point x="165" y="92" type="line" smooth="yes"/>
      <point x="165" y="81"/>
      <point x="159" y="77"/>
      <point x="152" y="74" type="curve" smooth="yes"/>
      <point x="138" y="67"/>
      <point x="97" y="53"/>
      <point x="95" y="49" type="curve" smooth="yes"/>
      <point x="92" y="43"/>
      <point x="92" y="38"/>
      <point x="92" y="25" type="curve" smooth="yes"/>
      <point x="92" y="12"/>
      <point x="93" y="6"/>
      <point x="95" y="0" type="curve"/>
      <point x="335" y="0" type="line"/>
      <point x="337" y="6"/>
      <point x="338" y="12"/>
    </contour>
  </outline>
</glyph>
<glyph name="S" format="1">
  <advance width="617"/>
  <unicode hex="0053"/>
  <outline>
    <contour>
      <point x="357" y="399" type="curve" smooth="yes"/>
      <point x="314" y="417"/>
      <point x="193" y="438"/>
      <point x="193" y="523" type="curve"/>
      <point x="193" y="581"/>
      <point x="249" y="624"/>
      <point x="332" y="624" type="curve"/>
      <point x="428" y="624"/>
      <point x="462" y="585"/>
      <point x="462" y="529" type="curve"/>
      <point x="519" y="529" type="line"/>
      <point x="519" y="668" type="line"/>
      <point x="519" y="673"/>
      <point x="450" y="710"/>
      <point x="342" y="710" type="curve"/>
      <point x="197" y="710"/>
      <point x="83" y="634"/>
      <point x="83" y="513" type="curve"/>
      <point x="83" y="386"/>
      <point x="204" y="353"/>
      <point x="244" y="333" type="curve" smooth="yes"/>
      <point x="286" y="312"/>
      <point x="433" y="274"/>
      <point x="433" y="193" type="curve"/>
      <point x="433" y="119"/>
      <point x="372" y="86"/>
      <point x="290" y="86" type="curve"/>
      <point x="191" y="86"/>
      <point x="134" y="130"/>
      <point x="134" y="221" type="curve"/>
      <point x="73" y="221" type="line"/>
      <point x="73" y="73" type="line"/>
      <point x="90" y="59"/>
      <point x="168" y="-6"/>
      <point x="299" y="-6" type="curve"/>
      <point x="441" y="-6"/>
      <point x="539" y="77"/>
      <point x="539" y="200" type="curve"/>
      <point x="539" y="340"/>
      <point x="391" y="383"/>
    </contour>
  </outline>
</glyph>
<glyph name="T" format="1">
  <advance width="678"/>
  <unicode hex="0054"/>
  <outline>
    <contour>
      <point x="461" y="25" type="curve" smooth="yes"/>
      <point x="461" y="38"/>
      <point x="461" y="43"/>
      <point x="458" y="49" type="curve" smooth="yes"/>
      <point x="456" y="53"/>
      <point x="413" y="71"/>
      <point x="402" y="77" type="curve"/>
      <point x="394" y="80"/>
      <point x="390" y="86"/>
      <point x="390" y="93" type="curve"/>
      <point x="390" y="596" type="line"/>
      <point x="390" y="603"/>
      <point x="396" y="609"/>
      <point x="404" y="612" type="curve"/>
      <point x="526" y="612" type="line"/>
      <point x="531" y="612"/>
      <point x="536" y="608"/>
      <point x="538" y="600" type="curve"/>
      <point x="542" y="588"/>
      <point x="556" y="538"/>
      <point x="559" y="536" type="curve" smooth="yes"/>
      <point x="564" y="533"/>
      <point x="577" y="533"/>
      <point x="587" y="533" type="curve" smooth="yes"/>
      <point x="597" y="533"/>
      <point x="603" y="531"/>
      <point x="606" y="536" type="curve" smooth="yes"/>
      <point x="608" y="538"/>
      <point x="600" y="702"/>
      <point x="596" y="702" type="curve" smooth="yes"/>
      <point x="79" y="702" type="line" smooth="yes"/>
      <point x="74" y="702"/>
      <point x="67" y="538"/>
      <point x="68" y="536" type="curve" smooth="yes"/>
      <point x="72" y="531"/>
      <point x="77" y="533"/>
      <point x="87" y="533" type="curve" smooth="yes"/>
      <point x="97" y="533"/>
      <point x="111" y="533"/>
      <point x="116" y="536" type="curve" smooth="yes"/>
      <point x="119" y="538"/>
      <point x="132" y="588"/>
      <point x="137" y="600" type="curve"/>
      <point x="139" y="608"/>
      <point x="144" y="612"/>
      <point x="149" y="612" type="curve"/>
      <point x="267" y="612" type="line"/>
      <point x="275" y="609"/>
      <point x="281" y="603"/>
      <point x="281" y="596" type="curve"/>
      <point x="281" y="93" type="line"/>
      <point x="281" y="86"/>
      <point x="277" y="80"/>
      <point x="269" y="77" type="curve"/>
      <point x="259" y="71"/>
      <point x="219" y="55"/>
      <point x="214" y="50" type="curve"/>
      <point x="213" y="49"/>
      <point x="213" y="49"/>
      <point x="213" y="49" type="curve" smooth="yes"/>
      <point x="210" y="43"/>
      <point x="210" y="38"/>
      <point x="210" y="25" type="curve" smooth="yes"/>
      <point x="210" y="12"/>
      <point x="211" y="6"/>
      <point x="213" y="0" type="curve"/>
      <point x="458" y="0" type="line"/>
      <point x="460" y="6"/>
      <point x="461" y="12"/>
    </contour>
  </outline>
</glyph>
<glyph name="U" format="1">
  <advance width="817"/>
  <unicode hex="0055"/>
  <outline>
    <contour>
      <point x="569" y="607" type="line"/>
      <point x="569" y="614"/>
      <point x="565" y="620"/>
      <point x="557" y="623" type="curve"/>
      <point x="540" y="630"/>
      <point x="487" y="647"/>
      <point x="484" y="651" type="curve" smooth="yes"/>
      <point x="481" y="657"/>
      <point x="481" y="662"/>
      <point x="481" y="675" type="curve" smooth="yes"/>
      <point x="481" y="688"/>
      <point x="482" y="694"/>
      <point x="484" y="700" type="curve"/>
      <point x="756" y="700" type="line"/>
      <point x="758" y="694"/>
      <point x="759" y="688"/>
      <point x="759" y="675" type="curve" smooth="yes"/>
      <point x="759" y="662"/>
      <point x="759" y="657"/>
      <point x="756" y="651" type="curve" smooth="yes"/>
      <point x="753" y="647"/>
      <point x="704" y="629"/>
      <point x="691" y="623" type="curve"/>
      <point x="683" y="620"/>
      <point x="678" y="614"/>
      <point x="678" y="607" type="curve"/>
      <point x="678" y="360" type="line"/>
      <point x="678" y="126"/>
      <point x="618" y="-14"/>
      <point x="398" y="-14" type="curve" smooth="yes"/>
      <point x="183" y="-14"/>
      <point x="137" y="126"/>
      <point x="137" y="355" type="curve"/>
      <point x="137" y="607" type="line"/>
      <point x="137" y="614"/>
      <point x="132" y="620"/>
      <point x="125" y="623" type="curve"/>
      <point x="108" y="632"/>
      <point x="62" y="647"/>
      <point x="60" y="651" type="curve" smooth="yes"/>
      <point x="56" y="657"/>
      <point x="56" y="662"/>
      <point x="56" y="675" type="curve" smooth="yes"/>
      <point x="56" y="688"/>
      <point x="57" y="694"/>
      <point x="60" y="700" type="curve"/>
      <point x="331" y="700" type="line"/>
      <point x="333" y="694"/>
      <point x="334" y="688"/>
      <point x="334" y="675" type="curve" smooth="yes"/>
      <point x="334" y="662"/>
      <point x="334" y="657"/>
      <point x="331" y="651" type="curve" smooth="yes"/>
      <point x="329" y="647"/>
      <point x="273" y="629"/>
      <point x="259" y="623" type="curve"/>
      <point x="251" y="620"/>
      <point x="246" y="614"/>
      <point x="246" y="607" type="curve"/>
      <point x="246" y="350" type="line"/>
      <point x="246" y="197"/>
      <point x="265" y="80"/>
      <point x="400" y="80" type="curve"/>
      <point x="535" y="80"/>
      <point x="569" y="196"/>
      <point x="569" y="348" type="curve"/>
    </contour>
  </outline>
</glyph>
<glyph name="V" format="1">
  <advance width="846"/>
  <unicode hex="0056"/>
  <outline>
    <contour>
      <point x="470" y="0" type="line"/>
      <point x="720" y="607" type="line"/>
      <point x="720" y="607" type="line"/>
      <point x="723" y="614"/>
      <point x="727" y="619"/>
      <point x="731" y="622" type="curve" smooth="yes"/>
      <point x="736" y="626"/>
      <point x="793" y="645"/>
      <point x="794" y="649" type="curve" smooth="yes"/>
      <point x="796" y="655"/>
      <point x="796" y="666"/>
      <point x="796" y="676" type="curve" smooth="yes"/>
      <point x="796" y="685"/>
      <point x="795" y="694"/>
      <point x="794" y="700" type="curve"/>
      <point x="546" y="700" type="line"/>
      <point x="545" y="693"/>
      <point x="543" y="684"/>
      <point x="543" y="675" type="curve" smooth="yes"/>
      <point x="543" y="665"/>
      <point x="546" y="651"/>
      <point x="549" y="649" type="curve" smooth="yes"/>
      <point x="553" y="647"/>
      <point x="589" y="630"/>
      <point x="601" y="622" type="curve"/>
      <point x="603" y="620"/>
      <point x="604" y="612"/>
      <point x="602" y="607" type="curve"/>
      <point x="412" y="92" type="line"/>
      <point x="438" y="92" type="line"/>
      <point x="246" y="608" type="line"/>
      <point x="244" y="610"/>
      <point x="244" y="621"/>
      <point x="246" y="622" type="curve" smooth="yes"/>
      <point x="256" y="628"/>
      <point x="296" y="647"/>
      <point x="300" y="649" type="curve" smooth="yes"/>
      <point x="303" y="651"/>
      <point x="306" y="665"/>
      <point x="306" y="675" type="curve" smooth="yes"/>
      <point x="306" y="684"/>
      <point x="304" y="693"/>
      <point x="303" y="700" type="curve"/>
      <point x="55" y="700" type="line"/>
      <point x="54" y="694"/>
      <point x="53" y="685"/>
      <point x="53" y="676" type="curve" smooth="yes"/>
      <point x="53" y="666"/>
      <point x="53" y="655"/>
      <point x="55" y="649" type="curve" smooth="yes"/>
      <point x="56" y="645"/>
      <point x="113" y="626"/>
      <point x="118" y="622" type="curve" smooth="yes"/>
      <point x="122" y="619"/>
      <point x="126" y="614"/>
      <point x="129" y="607" type="curve"/>
      <point x="132" y="600"/>
      <point x="305" y="152"/>
      <point x="363" y="0" type="curve"/>
    </contour>
  </outline>
</glyph>
<glyph name="W" format="1">
  <advance width="1163"/>
  <unicode hex="0057"/>
  <outline>
    <contour>
      <point x="730" y="0" type="line"/>
      <point x="840" y="0" type="line"/>
      <point x="1014" y="570" type="line" smooth="yes"/>
      <point x="1026" y="610"/>
      <point x="1054" y="622"/>
      <point x="1096" y="622" type="curve"/>
      <point x="1096" y="700" type="line"/>
      <point x="849" y="700" type="line"/>
      <point x="849" y="622" type="line"/>
      <point x="885" y="622" type="line"/>
      <point x="910" y="622"/>
      <point x="927" y="597"/>
      <point x="919" y="570" type="curve" smooth="yes"/>
      <point x="778" y="66" type="line"/>
      <point x="818" y="66" type="line"/>
      <point x="632" y="692" type="line"/>
      <point x="513" y="692" type="line"/>
      <point x="332" y="66" type="line"/>
      <point x="369" y="66" type="line"/>
      <point x="239" y="576" type="line" smooth="yes"/>
      <point x="233" y="600"/>
      <point x="249" y="622"/>
      <point x="271" y="622" type="curve"/>
      <point x="304" y="622" type="line"/>
      <point x="304" y="700" type="line"/>
      <point x="54" y="700" type="line"/>
      <point x="54" y="622" type="line"/>
      <point x="100" y="622"/>
      <point x="121" y="607"/>
      <point x="128" y="580" type="curve" smooth="yes"/>
      <point x="287" y="0" type="line"/>
      <point x="407" y="0" type="line"/>
      <point x="586" y="643" type="line"/>
      <point x="540" y="643" type="line"/>
    </contour>
  </outline>
</glyph>
<glyph name="X" format="1">
  <advance width="822"/>
  <unicode hex="0058"/>
  <outline>
    <contour>
      <point x="331" y="24" type="curve" smooth="yes"/>
      <point x="331" y="34"/>
      <point x="328" y="48"/>
      <point x="325" y="50" type="curve" smooth="yes"/>
      <point x="321" y="52"/>
      <point x="281" y="71"/>
      <point x="271" y="77" type="curve" smooth="yes"/>
      <point x="269" y="78"/>
      <point x="268" y="86"/>
      <point x="271" y="91" type="curve" smooth="yes"/>
      <point x="276" y="101"/>
      <point x="387" y="257"/>
      <point x="428" y="310" type="curve"/>
      <point x="389" y="307" type="line"/>
      <point x="429" y="255"/>
      <point x="548" y="99"/>
      <point x="552" y="92" type="curve"/>
      <point x="554" y="87"/>
      <point x="553" y="79"/>
      <point x="551" y="77" type="curve"/>
      <point x="539" y="69"/>
      <point x="503" y="52"/>
      <point x="499" y="50" type="curve" smooth="yes"/>
      <point x="496" y="48"/>
      <point x="493" y="34"/>
      <point x="493" y="24" type="curve" smooth="yes"/>
      <point x="493" y="15"/>
      <point x="495" y="6"/>
      <point x="496" y="-1" type="curve"/>
      <point x="763" y="-1" type="line"/>
      <point x="764" y="5"/>
      <point x="765" y="14"/>
      <point x="765" y="23" type="curve" smooth="yes"/>
      <point x="765" y="33"/>
      <point x="765" y="44"/>
      <point x="763" y="50" type="curve" smooth="yes"/>
      <point x="762" y="54"/>
      <point x="705" y="73"/>
      <point x="700" y="77" type="curve" smooth="yes"/>
      <point x="696" y="80"/>
      <point x="690" y="86"/>
      <point x="684" y="93" type="curve" smooth="yes"/>
      <point x="679" y="98"/>
      <point x="512" y="317"/>
      <point x="456" y="394" type="curve"/>
      <point x="462" y="346" type="line"/>
      <point x="513" y="418"/>
      <point x="653" y="604"/>
      <point x="662" y="612" type="curve" smooth="yes"/>
      <point x="669" y="619"/>
      <point x="674" y="621"/>
      <point x="680" y="623" type="curve" smooth="yes"/>
      <point x="685" y="625"/>
      <point x="742" y="645"/>
      <point x="743" y="649" type="curve" smooth="yes"/>
      <point x="745" y="655"/>
      <point x="745" y="666"/>
      <point x="745" y="676" type="curve" smooth="yes"/>
      <point x="745" y="685"/>
      <point x="744" y="694"/>
      <point x="743" y="700" type="curve"/>
      <point x="489" y="700" type="line"/>
      <point x="488" y="693"/>
      <point x="486" y="684"/>
      <point x="486" y="675" type="curve" smooth="yes"/>
      <point x="486" y="665"/>
      <point x="489" y="651"/>
      <point x="492" y="649" type="curve" smooth="yes"/>
      <point x="496" y="647"/>
      <point x="532" y="630"/>
      <point x="544" y="622" type="curve"/>
      <point x="546" y="620"/>
      <point x="548" y="612"/>
      <point x="545" y="607" type="curve" smooth="yes"/>
      <point x="539" y="597"/>
      <point x="446" y="474"/>
      <point x="401" y="418" type="curve"/>
      <point x="431" y="418" type="line"/>
      <point x="396" y="465"/>
      <point x="293" y="601"/>
      <point x="289" y="607" type="curve" smooth="yes"/>
      <point x="283" y="616"/>
      <point x="284" y="621"/>
      <point x="286" y="622" type="curve" smooth="yes"/>
      <point x="296" y="628"/>
      <point x="334" y="647"/>
      <point x="338" y="649" type="curve" smooth="yes"/>
      <point x="341" y="651"/>
      <point x="344" y="665"/>
      <point x="344" y="675" type="curve" smooth="yes"/>
      <point x="344" y="684"/>
      <point x="342" y="693"/>
      <point x="341" y="700" type="curve"/>
      <point x="77" y="700" type="line"/>
      <point x="76" y="694"/>
      <point x="75" y="685"/>
      <point x="75" y="676" type="curve" smooth="yes"/>
      <point x="75" y="666"/>
      <point x="75" y="655"/>
      <point x="77" y="649" type="curve" smooth="yes"/>
      <point x="78" y="645"/>
      <point x="134" y="626"/>
      <point x="139" y="622" type="curve" smooth="yes"/>
      <point x="143" y="619"/>
      <point x="149" y="615"/>
      <point x="153" y="609" type="curve" smooth="yes"/>
      <point x="157" y="603"/>
      <point x="305" y="411"/>
      <point x="357" y="342" type="curve"/>
      <point x="358" y="379" type="line"/>
      <point x="305" y="306"/>
      <point x="153" y="101"/>
      <point x="143" y="91" type="curve" smooth="yes"/>
      <point x="137" y="85"/>
      <point x="134" y="80"/>
      <point x="130" y="77" type="curve" smooth="yes"/>
      <point x="125" y="73"/>
      <point x="62" y="54"/>
      <point x="61" y="50" type="curve" smooth="yes"/>
      <point x="59" y="44"/>
      <point x="59" y="33"/>
      <point x="59" y="23" type="curve" smooth="yes"/>
      <point x="59" y="14"/>
      <point x="60" y="5"/>
      <point x="61" y="-1" type="curve"/>
      <point x="328" y="-1" type="line"/>
      <point x="329" y="6"/>
      <point x="331" y="15"/>
    </contour>
  </outline>
</glyph>
<glyph name="Y" format="1">
  <advance width="731"/>
  <unicode hex="0059"/>
  <outline>
    <contour>
      <point x="414" y="271" type="line"/>
      <point x="620" y="620" type="line"/>
      <point x="620" y="620" type="line"/>
      <point x="622" y="625"/>
      <point x="624" y="628"/>
      <point x="628" y="631" type="curve" smooth="yes"/>
      <point x="631" y="634"/>
      <point x="675" y="647"/>
      <point x="676" y="651" type="curve" smooth="yes"/>
      <point x="677" y="654"/>
      <point x="679" y="669"/>
      <point x="679" y="676" type="curve" smooth="yes"/>
      <point x="679" y="683"/>
      <point x="676" y="695"/>
      <point x="676" y="700" type="curve"/>
      <point x="462" y="700" type="line"/>
      <point x="461" y="695"/>
      <point x="458" y="682"/>
      <point x="458" y="676" type="curve" smooth="yes"/>
      <point x="458" y="669"/>
      <point x="462" y="652"/>
      <point x="464" y="651" type="curve" smooth="yes"/>
      <point x="467" y="650"/>
      <point x="500" y="637"/>
      <point x="508" y="631" type="curve"/>
      <point x="509" y="629"/>
      <point x="510" y="623"/>
      <point x="509" y="620" type="curve"/>
      <point x="363" y="348" type="line"/>
      <point x="376" y="348" type="line"/>
      <point x="227" y="621" type="line"/>
      <point x="226" y="622"/>
      <point x="226" y="631"/>
      <point x="227" y="631" type="curve" smooth="yes"/>
      <point x="233" y="635"/>
      <point x="270" y="650"/>
      <point x="273" y="651" type="curve" smooth="yes"/>
      <point x="275" y="652"/>
      <point x="279" y="669"/>
      <point x="279" y="676" type="curve" smooth="yes"/>
      <point x="279" y="682"/>
      <point x="276" y="695"/>
      <point x="275" y="700" type="curve"/>
      <point x="54" y="700" type="line"/>
      <point x="53" y="695"/>
      <point x="51" y="683"/>
      <point x="51" y="676" type="curve" smooth="yes"/>
      <point x="51" y="669"/>
      <point x="53" y="654"/>
      <point x="54" y="651" type="curve" smooth="yes"/>
      <point x="55" y="647"/>
      <point x="99" y="634"/>
      <point x="102" y="631" type="curve" smooth="yes"/>
      <point x="105" y="628"/>
      <point x="108" y="625"/>
      <point x="110" y="620" type="curve"/>
      <point x="307" y="271" type="line"/>
      <point x="307" y="93" type="line"/>
      <point x="307" y="82"/>
      <point x="301" y="78"/>
      <point x="294" y="75" type="curve" smooth="yes"/>
      <point x="280" y="68"/>
      <point x="239" y="54"/>
      <point x="237" y="50" type="curve" smooth="yes"/>
      <point x="234" y="44"/>
      <point x="234" y="39"/>
      <point x="234" y="26" type="curve" smooth="yes"/>
      <point x="234" y="13"/>
      <point x="235" y="7"/>
      <point x="237" y="1" type="curve"/>
      <point x="484" y="1" type="line"/>
      <point x="486" y="7"/>
      <point x="487" y="13"/>
      <point x="487" y="26" type="curve" smooth="yes"/>
      <point x="487" y="39"/>
      <point x="487" y="44"/>
      <point x="484" y="50" type="curve" smooth="yes"/>
      <point x="482" y="54"/>
      <point x="437" y="69"/>
      <point x="426" y="75" type="curve"/>
      <point x="417" y="78"/>
      <point x="414" y="85"/>
      <point x="414" y="96" type="curve"/>
    </contour>
  </outline>
</glyph>
<glyph name="Z" format="1">
  <advance width="677"/>
  <unicode hex="005A"/>
  <outline>
    <contour>
      <point x="498" y="92" type="line"/>
      <point x="509" y="92"/>
      <point x="513" y="99"/>
      <point x="516" y="107" type="curve"/>
      <point x="523" y="124"/>
      <point x="548" y="189"/>
      <point x="552" y="191" type="curve" smooth="yes"/>
      <point x="558" y="195"/>
      <point x="563" y="195"/>
      <point x="576" y="195" type="curve" smooth="yes"/>
      <point x="589" y="195"/>
      <point x="595" y="193"/>
      <point x="601" y="191" type="curve"/>
      <point x="588" y="1" type="line"/>
      <point x="98" y="1" type="line"/>
      <point x="86" y="1"/>
      <point x="77" y="7"/>
      <point x="77" y="24" type="curve"/>
      <point x="77" y="40"/>
      <point x="76" y="84"/>
      <point x="81" y="92" type="curve"/>
      <point x="478" y="620" type="line"/>
      <point x="482" y="606" type="line"/>
      <point x="209" y="606" type="line"/>
      <point x="198" y="608"/>
      <point x="188" y="603"/>
      <point x="182" y="592" type="curve" smooth="yes"/>
      <point x="175" y="579"/>
      <point x="151" y="512"/>
      <point x="147" y="509" type="curve" smooth="yes"/>
      <point x="141" y="506"/>
      <point x="136" y="506"/>
      <point x="123" y="506" type="curve" smooth="yes"/>
      <point x="110" y="506"/>
      <point x="104" y="507"/>
      <point x="98" y="509" type="curve"/>
      <point x="111" y="683" type="line"/>
      <point x="113" y="692"/>
      <point x="117" y="697"/>
      <point x="125" y="700" type="curve"/>
      <point x="579" y="700" type="line"/>
      <point x="588" y="700"/>
      <point x="589" y="616"/>
      <point x="587" y="607" type="curve"/>
      <point x="199" y="70" type="line"/>
      <point x="196" y="92" type="line"/>
    </contour>
  </outline>
</glyph>
<glyph name="underscore" format="1">
  <advance width="612"/>
  <unicode hex="005F"/>
  <outline>
    <contour>
      <point x="95" y="113" type="line"/>
      <point x="83" y="113"/>
      <point x="78" y="107"/>
      <point x="78" y="101" type="curve"/>
      <point x="78" y="12" type="line"/>
      <point x="78" y="4"/>
      <point x="82" y="0"/>
      <point x="93" y="0" type="curve"/>
      <point x="520" y="0" type="line"/>
      <point x="531" y="0"/>
      <point x="535" y="4"/>
      <point x="535" y="12" type="curve"/>
      <point x="535" y="101" type="line"/>
      <point x="535" y="107"/>
      <point x="530" y="113"/>
      <point x="518" y="113" type="curve"/>
    </contour>
  </outline>
</glyph>
<glyph name="a" format="1">
  <advance width="710"/>
  <unicode hex="0061"/>
  <outline>
    <contour>
      <point x="160" y="407" type="line"/>
      <point x="199" y="441"/>
      <point x="249" y="487"/>
      <point x="338" y="487" type="curve"/>
      <point x="441" y="487"/>
      <point x="501" y="421"/>
      <point x="501" y="295" type="curve"/>
      <point x="501" y="171"/>
      <point x="402" y="64"/>
      <point x="299" y="64" type="curve"/>
      <point x="217" y="64"/>
      <point x="181" y="112"/>
      <point x="181" y="170" type="curve"/>
      <point x="181" y="252"/>
      <point x="390" y="268"/>
      <point x="551" y="268" type="curve"/>
      <point x="515" y="341" type="line"/>
      <point x="355" y="341"/>
      <point x="88" y="325"/>
      <point x="88" y="165" type="curve"/>
      <point x="88" y="74"/>
      <point x="154" y="-15"/>
      <point x="295" y="-15" type="curve"/>
      <point x="439" y="-15"/>
      <point x="513" y="92"/>
      <point x="513" y="143" type="curve"/>
      <point x="504" y="132" type="line"/>
      <point x="504" y="29"/>
      <point x="526" y="0"/>
      <point x="583" y="0" type="curve"/>
      <point x="662" y="0" type="line"/>
      <point x="662" y="70" type="line"/>
      <point x="631" y="70" type="line"/>
      <point x="604" y="70"/>
      <point x="588" y="87"/>
      <point x="588" y="132" type="curve"/>
      <point x="588" y="331" type="line"/>
      <point x="588" y="479"/>
      <point x="481" y="565"/>
      <point x="332" y="565" type="curve"/>
      <point x="234" y="565"/>
      <point x="160" y="515"/>
      <point x="110" y="468" type="curve"/>
    </contour>
  </outline>
</glyph>
<glyph name="b" format="1">
  <advance width="683"/>
  <unicode hex="0062"/>
  <outline>
    <contour>
      <point x="182" y="274" type="curve" smooth="yes"/>
      <point x="182" y="383"/>
      <point x="260" y="479"/>
      <point x="357" y="479" type="curve"/>
      <point x="459" y="479"/>
      <point x="536" y="408"/>
      <point x="536" y="278" type="curve"/>
      <point x="536" y="168"/>
      <point x="472" y="74"/>
      <point x="366" y="74" type="curve"/>
      <point x="258" y="74"/>
      <point x="182" y="149"/>
    </contour>
    <contour>
      <point x="187" y="693" type="line"/>
      <point x="187" y="719"/>
      <point x="165" y="750"/>
      <point x="135" y="750" type="curve"/>
      <point x="11" y="750" type="line"/>
      <point x="11" y="681" type="line"/>
      <point x="52" y="680"/>
      <point x="95" y="669"/>
      <point x="95" y="622" type="curve"/>
      <point x="95" y="0" type="line"/>
      <point x="139" y="0" type="line"/>
      <point x="197" y="97" type="line"/>
      <point x="179" y="95" type="line"/>
      <point x="179" y="49"/>
      <point x="253" y="-16"/>
      <point x="361" y="-16" type="curve"/>
      <point x="502" y="-16"/>
      <point x="631" y="92"/>
      <point x="631" y="286" type="curve"/>
      <point x="631" y="438"/>
      <point x="533" y="565"/>
      <point x="376" y="565" type="curve"/>
      <point x="267" y="565"/>
      <point x="174" y="479"/>
      <point x="174" y="435" type="curve"/>
      <point x="189" y="441" type="line"/>
    </contour>
  </outline>
</glyph>
<glyph name="c" format="1">
  <advance width="666"/>
  <unicode hex="0063"/>
  <outline>
    <contour>
      <point x="509" y="422"/>
      <point x="470" y="476"/>
      <point x="371" y="476" type="curve"/>
      <point x="269" y="476"/>
      <point x="179" y="398"/>
      <point x="179" y="268" type="curve" smooth="yes"/>
      <point x="179" y="140"/>
      <point x="263" y="72"/>
      <point x="379" y="72" type="curve"/>
      <point x="461" y="72"/>
      <point x="520" y="110"/>
      <point x="547" y="141" type="curve"/>
      <point x="592" y="76" type="line"/>
      <point x="570" y="53"/>
      <point x="493" y="-15"/>
      <point x="367" y="-15" type="curve"/>
      <point x="209" y="-15"/>
      <point x="80" y="84"/>
      <point x="80" y="270" type="curve"/>
      <point x="80" y="451"/>
      <point x="216" y="564"/>
      <point x="363" y="564" type="curve"/>
      <point x="453" y="564"/>
      <point x="533" y="518"/>
      <point x="533" y="475" type="curve"/>
      <point x="517" y="476" type="line"/>
      <point x="517" y="589" type="line"/>
      <point x="591" y="589" type="line"/>
      <point x="589" y="369" type="line"/>
      <point x="509" y="369" type="line"/>
    </contour>
  </outline>
</glyph>
<glyph name="d" format="1">
  <advance width="798"/>
  <unicode hex="0064"/>
  <outline>
    <contour>
      <point x="376" y="477" type="curve" smooth="yes"/>
      <point x="480" y="477"/>
      <point x="554" y="385"/>
      <point x="554" y="272" type="curve"/>
      <point x="554" y="161"/>
      <point x="482" y="67"/>
      <point x="372" y="67" type="curve"/>
      <point x="264" y="67"/>
      <point x="193" y="141"/>
      <point x="193" y="268" type="curve"/>
      <point x="193" y="393"/>
      <point x="270" y="477"/>
    </contour>
    <contour>
      <point x="653" y="686" type="line"/>
      <point x="653" y="720"/>
      <point x="625" y="750"/>
      <point x="591" y="750" type="curve"/>
      <point x="490" y="750" type="line"/>
      <point x="490" y="680" type="line"/>
      <point x="525" y="680"/>
      <point x="560" y="676"/>
      <point x="560" y="634" type="curve"/>
      <point x="560" y="412" type="line"/>
      <point x="572" y="412" type="line"/>
      <point x="572" y="479"/>
      <point x="479" y="564"/>
      <point x="360" y="564" type="curve"/>
      <point x="197" y="564"/>
      <point x="95" y="427"/>
      <point x="95" y="267" type="curve"/>
      <point x="95" y="91"/>
      <point x="207" y="-15"/>
      <point x="352" y="-15" type="curve"/>
      <point x="494" y="-15"/>
      <point x="570" y="85"/>
      <point x="570" y="132" type="curve"/>
      <point x="559" y="132" type="line"/>
      <point x="559" y="49"/>
      <point x="596" y="0"/>
      <point x="652" y="0" type="curve"/>
      <point x="736" y="0" type="line"/>
      <point x="736" y="73" type="line"/>
      <point x="676" y="73"/>
      <point x="653" y="92"/>
      <point x="653" y="142" type="curve"/>
    </contour>
  </outline>
</glyph>
<glyph name="e" format="1">
  <advance width="696"/>
  <unicode hex="0065"/>
  <outline>
    <contour>
      <point x="609" y="102" type="line"/>
      <point x="560" y="49"/>
      <point x="508" y="-14"/>
      <point x="355" y="-14" type="curve" smooth="yes"/>
      <point x="202" y="-14"/>
      <point x="84" y="103"/>
      <point x="84" y="274" type="curve" smooth="yes"/>
      <point x="84" y="435"/>
      <point x="211" y="567"/>
      <point x="360" y="567" type="curve"/>
      <point x="500" y="567"/>
      <point x="614" y="454"/>
      <point x="614" y="305" type="curve"/>
      <point x="568" y="256" type="line"/>
      <point x="151" y="256" type="line"/>
      <point x="152" y="332" type="line"/>
      <point x="545" y="332" type="line"/>
      <point x="537" y="312" type="line"/>
      <point x="537" y="382"/>
      <point x="466" y="489"/>
      <point x="364" y="489" type="curve" smooth="yes"/>
      <point x="250" y="489"/>
      <point x="178" y="382"/>
      <point x="178" y="274" type="curve" smooth="yes"/>
      <point x="178" y="144"/>
      <point x="246" y="68"/>
      <point x="359" y="68" type="curve" smooth="yes"/>
      <point x="472" y="68"/>
      <point x="514" y="107"/>
      <point x="563" y="153" type="curve"/>
    </contour>
  </outline>
</glyph>
<glyph name="f" format="1">
  <advance width="395"/>
  <unicode hex="0066"/>
  <outline>
    <contour>
      <point x="210" y="697"/>
      <point x="199" y="639"/>
      <point x="199" y="558" type="curve"/>
      <point x="199" y="130" type="line"/>
      <point x="199" y="86"/>
      <point x="239" y="69"/>
      <point x="307" y="69" type="curve"/>
      <point x="307" y="0" type="line"/>
      <point x="47" y="0" type="line"/>
      <point x="47" y="70" type="line"/>
      <point x="85" y="70"/>
      <point x="104" y="93"/>
      <point x="104" y="129" type="curve"/>
      <point x="104" y="555" type="line"/>
      <point x="104" y="660"/>
      <point x="144" y="766"/>
      <point x="300" y="766" type="curve"/>
      <point x="389" y="766"/>
      <point x="423" y="741"/>
      <point x="427" y="737" type="curve"/>
      <point x="441" y="616" type="line"/>
      <point x="374" y="616" type="line"/>
      <point x="374" y="660"/>
      <point x="350" y="697"/>
      <point x="291" y="697" type="curve"/>
    </contour>
    <contour>
      <point x="48" y="490" type="line"/>
      <point x="328" y="490" type="line"/>
      <point x="328" y="420" type="line"/>
      <point x="48" y="420" type="line"/>
    </contour>
  </outline>
</glyph>
<glyph name="g" format="1">
  <advance width="675"/>
  <unicode hex="0067"/>
  <outline>
    <contour>
      <point x="464" y="489" type="curve"/>
      <point x="513" y="437" type="line"/>
      <point x="531" y="449"/>
      <point x="564" y="469"/>
      <point x="596" y="476" type="curve" smooth="yes"/>
      <point x="622" y="482"/>
      <point x="632" y="478"/>
      <point x="644" y="478" type="curve"/>
      <point x="651" y="561" type="line"/>
      <point x="635" y="561"/>
      <point x="609" y="560"/>
      <point x="569" y="550" type="curve" smooth="yes"/>
      <point x="528" y="540"/>
      <point x="495" y="511"/>
    </contour>
    <contour>
      <point x="332" y="481" type="curve" smooth="yes"/>
      <point x="438" y="481"/>
      <point x="498" y="398"/>
      <point x="498" y="301" type="curve" smooth="yes"/>
      <point x="498" y="193"/>
      <point x="432" y="133"/>
      <point x="331" y="133" type="curve"/>
      <point x="234" y="133"/>
      <point x="168" y="195"/>
      <point x="168" y="301" type="curve"/>
      <point x="168" y="404"/>
      <point x="237" y="481"/>
    </contour>
    <contour>
      <point x="358" y="-230" type="curve"/>
      <point x="452" y="-230"/>
      <point x="576" y="-173"/>
      <point x="576" y="-61" type="curve"/>
      <point x="576" y="36"/>
      <point x="463" y="80"/>
      <point x="394" y="80" type="curve"/>
      <point x="397" y="65" type="line"/>
      <point x="450" y="65"/>
      <point x="606" y="136"/>
      <point x="606" y="303" type="curve"/>
      <point x="606" y="441"/>
      <point x="503" y="561"/>
      <point x="331" y="561" type="curve" smooth="yes"/>
      <point x="155" y="561"/>
      <point x="58" y="433"/>
      <point x="58" y="296" type="curve" smooth="yes"/>
      <point x="58" y="165"/>
      <point x="168" y="61"/>
      <point x="309" y="40" type="curve" smooth="yes"/>
      <point x="438" y="21"/>
      <point x="471" y="-11"/>
      <point x="471" y="-58" type="curve"/>
      <point x="471" y="-111"/>
      <point x="421" y="-147"/>
      <point x="347" y="-147" type="curve"/>
      <point x="264" y="-147"/>
      <point x="203" y="-92"/>
      <point x="203" y="-53" type="curve"/>
      <point x="131" y="-85" type="line"/>
      <point x="131" y="-134"/>
      <point x="205" y="-230"/>
    </contour>
  </outline>
</glyph>
<glyph name="h" format="1">
  <advance width="800"/>
  <unicode hex="0068"/>
  <outline>
    <contour>
      <point x="641" y="118" type="curve"/>
      <point x="641" y="317" type="line"/>
      <point x="641" y="456"/>
      <point x="587" y="565"/>
      <point x="430" y="565" type="curve"/>
      <point x="292" y="565"/>
      <point x="228" y="472"/>
      <point x="228" y="427" type="curve"/>
      <point x="246" y="429" type="line"/>
      <point x="246" y="675" type="line"/>
      <point x="246" y="720"/>
      <point x="222" y="750"/>
      <point x="171" y="750" type="curve"/>
      <point x="84" y="750" type="line"/>
      <point x="84" y="679" type="line"/>
      <point x="131" y="679"/>
      <point x="154" y="664"/>
      <point x="154" y="607" type="curve" smooth="yes"/>
      <point x="154" y="115" type="line" smooth="yes"/>
      <point x="154" y="79"/>
      <point x="133" y="70"/>
      <point x="107" y="70" type="curve"/>
      <point x="107" y="0" type="line"/>
      <point x="336" y="0" type="line"/>
      <point x="336" y="70" type="line"/>
      <point x="290" y="70"/>
      <point x="250" y="77"/>
      <point x="250" y="115" type="curve" smooth="yes"/>
      <point x="250" y="308" type="line"/>
      <point x="250" y="416"/>
      <point x="325" y="482"/>
      <point x="407" y="482" type="curve" smooth="yes"/>
      <point x="497" y="482"/>
      <point x="546" y="427"/>
      <point x="546" y="305" type="curve"/>
      <point x="546" y="120" type="line"/>
      <point x="546" y="81"/>
      <point x="530" y="70"/>
      <point x="496" y="70" type="curve"/>
      <point x="496" y="0" type="line"/>
      <point x="729" y="0" type="line"/>
      <point x="729" y="70" type="line"/>
      <point x="680" y="70"/>
      <point x="641" y="83"/>
    </contour>
  </outline>
</glyph>
<glyph name="i" format="1">
  <advance width="416"/>
  <unicode hex="0069"/>
  <outline>
    <contour>
      <point x="245" y="139" type="line"/>
      <point x="245" y="85"/>
      <point x="275" y="68"/>
      <point x="337" y="68" type="curve"/>
      <point x="337" y="0" type="line"/>
      <point x="107" y="0" type="line"/>
      <point x="107" y="68" type="line"/>
      <point x="149" y="68"/>
      <point x="151" y="94"/>
      <point x="151" y="139" type="curve"/>
      <point x="151" y="410" type="line"/>
      <point x="151" y="459"/>
      <point x="138" y="479"/>
      <point x="91" y="479" type="curve"/>
      <point x="91" y="550" type="line"/>
      <point x="190" y="550" type="line"/>
      <point x="232" y="550"/>
      <point x="245" y="518"/>
      <point x="245" y="478" type="curve"/>
    </contour>
    <contour>
      <point x="127" y="632" type="line"/>
      <point x="252" y="632" type="line"/>
      <point x="252" y="703" type="line"/>
      <point x="252" y="731"/>
      <point x="238" y="755"/>
      <point x="212" y="755" type="curve"/>
      <point x="127" y="755" type="line"/>
    </contour>
  </outline>
</glyph>
<glyph name="j" format="1">
  <advance width="278"/>
  <unicode hex="006A"/>
  <outline>
    <contour>
      <point x="11" y="-152" type="line"/>
      <point x="92" y="-152"/>
      <point x="108" y="-51"/>
      <point x="108" y="13" type="curve"/>
      <point x="108" y="441" type="line"/>
      <point x="108" y="487"/>
      <point x="96" y="501"/>
      <point x="55" y="501" type="curve"/>
      <point x="55" y="550" type="line"/>
      <point x="143" y="550" type="line"/>
      <point x="183" y="550"/>
      <point x="203" y="524"/>
      <point x="203" y="487" type="curve"/>
      <point x="203" y="17" type="line"/>
      <point x="203" y="-95"/>
      <point x="148" y="-211"/>
      <point x="11" y="-211" type="curve"/>
    </contour>
    <contour>
      <point x="94" y="612" type="line"/>
      <point x="203" y="612" type="line"/>
      <point x="203" y="654" type="line"/>
      <point x="203" y="689"/>
      <point x="188" y="700"/>
      <point x="168" y="700" type="curve"/>
      <point x="94" y="700" type="line"/>
    </contour>
  </outline>
</glyph>
<glyph name="k" format="1">
  <advance width="658"/>
  <unicode hex="006B"/>
  <outline>
    <contour>
      <point x="642" y="0" type="line"/>
      <point x="642" y="49" type="line"/>
      <point x="592" y="49"/>
      <point x="561" y="76"/>
      <point x="537" y="112" type="curve" smooth="yes"/>
      <point x="362" y="375" type="line"/>
      <point x="293" y="317" type="line"/>
      <point x="491" y="9" type="line"/>
      <point x="494" y="4"/>
      <point x="498" y="1"/>
      <point x="503" y="0" type="curve"/>
    </contour>
    <contour>
      <point x="193" y="174" type="line"/>
      <point x="255" y="234"/>
      <point x="490" y="466"/>
      <point x="501" y="479" type="curve" smooth="yes"/>
      <point x="511" y="490"/>
      <point x="537" y="514"/>
      <point x="561" y="514" type="curve"/>
      <point x="581" y="514" type="line"/>
      <point x="581" y="567" type="line"/>
      <point x="349" y="567" type="line"/>
      <point x="349" y="514" type="line"/>
      <point x="390" y="514" type="line"/>
      <point x="403" y="514"/>
      <point x="409" y="498"/>
      <point x="398" y="486" type="curve" smooth="yes"/>
      <point x="364" y="448"/>
      <point x="197" y="293"/>
      <point x="170" y="274" type="curve"/>
    </contour>
    <contour>
      <point x="216" y="676" type="line"/>
      <point x="216" y="724"/>
      <point x="203" y="750"/>
      <point x="165" y="750" type="curve"/>
      <point x="63" y="750" type="line"/>
      <point x="63" y="705" type="line"/>
      <point x="108" y="705"/>
      <point x="121" y="686"/>
      <point x="121" y="640" type="curve"/>
      <point x="121" y="100" type="line"/>
      <point x="121" y="62"/>
      <point x="98" y="49"/>
      <point x="64" y="49" type="curve"/>
      <point x="64" y="0" type="line"/>
      <point x="305" y="0" type="line"/>
      <point x="305" y="49" type="line"/>
      <point x="244" y="49"/>
      <point x="216" y="64"/>
      <point x="216" y="100" type="curve"/>
    </contour>
  </outline>
</glyph>
<glyph name="l" format="1">
  <advance width="308"/>
  <unicode hex="006C"/>
  <outline>
    <contour>
      <point x="203" y="95" type="line"/>
      <point x="206" y="63"/>
      <point x="241" y="49"/>
      <point x="286" y="49" type="curve"/>
      <point x="282" y="0" type="line"/>
      <point x="68" y="0" type="line"/>
      <point x="68" y="49" type="line"/>
      <point x="86" y="49"/>
      <point x="105.0" y="70.476680806"/>
      <point x="105" y="91" type="curve"/>
      <point x="105" y="649" type="line"/>
      <point x="105" y="680"/>
      <point x="90" y="707"/>
      <point x="44" y="707" type="curve"/>
      <point x="44" y="752" type="line"/>
      <point x="151" y="752" type="line"/>
      <point x="185" y="752"/>
      <point x="203" y="729"/>
      <point x="203" y="703" type="curve"/>
    </contour>
  </outline>
</glyph>
<glyph name="m" format="1">
  <advance width="1045"/>
  <unicode hex="006D"/>
  <outline>
    <contour>
      <point x="931" y="346" type="line"/>
      <point x="931" y="471"/>
      <point x="860" y="564"/>
      <point x="727" y="564" type="curve" smooth="yes"/>
      <point x="624" y="564"/>
      <point x="525" y="499"/>
      <point x="525" y="441" type="curve"/>
      <point x="543" y="441" type="line"/>
      <point x="543" y="498"/>
      <point x="474" y="565"/>
      <point x="372" y="565" type="curve"/>
      <point x="242" y="565"/>
      <point x="183" y="464"/>
      <point x="183" y="406" type="curve"/>
      <point x="191" y="402" type="line"/>
      <point x="191" y="491" type="line"/>
      <point x="191" y="528"/>
      <point x="160" y="550"/>
      <point x="128" y="550" type="curve"/>
      <point x="33" y="550" type="line"/>
      <point x="33" y="480" type="line"/>
      <point x="88" y="480"/>
      <point x="115" y="461"/>
      <point x="115" y="415" type="curve"/>
      <point x="115" y="119" type="line"/>
      <point x="115" y="87"/>
      <point x="89" y="68"/>
      <point x="64" y="68" type="curve"/>
      <point x="64" y="0" type="line"/>
      <point x="296" y="0" type="line"/>
      <point x="296" y="68" type="line"/>
      <point x="249" y="68"/>
      <point x="210" y="84"/>
      <point x="210" y="119" type="curve"/>
      <point x="210" y="318" type="line"/>
      <point x="210" y="429"/>
      <point x="278" y="481"/>
      <point x="345" y="481" type="curve"/>
      <point x="418" y="481"/>
      <point x="479" y="441"/>
      <point x="479" y="323" type="curve" smooth="yes"/>
      <point x="479" y="118" type="line"/>
      <point x="479" y="81"/>
      <point x="445" y="68"/>
      <point x="425" y="68" type="curve"/>
      <point x="425" y="0" type="line"/>
      <point x="662" y="0" type="line"/>
      <point x="662" y="68" type="line"/>
      <point x="607" y="68"/>
      <point x="572" y="83"/>
      <point x="572" y="119" type="curve"/>
      <point x="572" y="323" type="line"/>
      <point x="572" y="413"/>
      <point x="635" y="481"/>
      <point x="713" y="481" type="curve"/>
      <point x="772" y="481"/>
      <point x="838" y="441"/>
      <point x="838" y="323" type="curve"/>
      <point x="838" y="119" type="line"/>
      <point x="838" y="84"/>
      <point x="813" y="68"/>
      <point x="789" y="68" type="curve"/>
      <point x="789" y="0" type="line"/>
      <point x="1008" y="0" type="line"/>
      <point x="1008" y="68" type="line"/>
      <point x="957" y="68"/>
      <point x="931" y="80"/>
      <point x="931" y="119" type="curve"/>
    </contour>
  </outline>
</glyph>
<glyph name="n" format="1">
  <advance width="694"/>
  <unicode hex="006E"/>
  <outline>
    <contour>
      <point x="502" y="298" type="line" smooth="yes"/>
      <point x="502" y="414"/>
      <point x="452" y="480"/>
      <point x="355" y="480" type="curve"/>
      <point x="260" y="480"/>
      <point x="202" y="408"/>
      <point x="202" y="297" type="curve" smooth="yes"/>
      <point x="202" y="131" type="line"/>
      <point x="202" y="84"/>
      <point x="245" y="70"/>
      <point x="302" y="70" type="curve"/>
      <point x="302" y="0" type="line"/>
      <point x="54" y="0" type="line"/>
      <point x="54" y="70" type="line"/>
      <point x="84" y="70"/>
      <point x="107" y="86"/>
      <point x="107" y="131" type="curve"/>
      <point x="107" y="377" type="line"/>
      <point x="107" y="458"/>
      <point x="70" y="480"/>
      <point x="21" y="480" type="curve"/>
      <point x="21" y="550" type="line"/>
      <point x="130" y="550" type="line"/>
      <point x="160" y="550"/>
      <point x="177" y="524"/>
      <point x="178" y="500" type="curve"/>
      <point x="185" y="402" type="line"/>
      <point x="170" y="403" type="line"/>
      <point x="170" y="474"/>
      <point x="254" y="565"/>
      <point x="377" y="565" type="curve"/>
      <point x="523" y="565"/>
      <point x="598" y="489"/>
      <point x="598" y="282" type="curve" smooth="yes"/>
      <point x="598" y="130" type="line"/>
      <point x="598" y="84"/>
      <point x="630" y="70"/>
      <point x="682" y="70" type="curve"/>
      <point x="682" y="0" type="line"/>
      <point x="449" y="0" type="line"/>
      <point x="449" y="70" type="line"/>
      <point x="480" y="70"/>
      <point x="502" y="89"/>
      <point x="502" y="132" type="curve"/>
    </contour>
  </outline>
</glyph>
<glyph name="o" format="1">
  <advance width="741"/>
  <unicode hex="006F"/>
  <outline>
    <contour>
      <point x="370" y="566" type="curve" smooth="yes"/>
      <point x="529" y="566"/>
      <point x="657" y="437"/>
      <point x="657" y="274" type="curve" smooth="yes"/>
      <point x="657" y="111"/>
      <point x="542" y="-16"/>
      <point x="370" y="-16" type="curve" smooth="yes"/>
      <point x="198" y="-16"/>
      <point x="81" y="111"/>
      <point x="81" y="274" type="curve" smooth="yes"/>
      <point x="81" y="437"/>
      <point x="211" y="566"/>
    </contour>
    <contour>
      <point x="176" y="274" type="curve" smooth="yes"/>
      <point x="176" y="161"/>
      <point x="246" y="65"/>
      <point x="370" y="65" type="curve" smooth="yes"/>
      <point x="494" y="65"/>
      <point x="562" y="162"/>
      <point x="562" y="274" type="curve" smooth="yes"/>
      <point x="562" y="386"/>
      <point x="493" y="486"/>
      <point x="371" y="486" type="curve" smooth="yes"/>
      <point x="249" y="486"/>
      <point x="176" y="387"/>
    </contour>
  </outline>
</glyph>
<glyph name="p" format="1">
  <advance width="697"/>
  <unicode hex="0070"/>
  <outline>
    <contour>
      <point x="365" y="68" type="curve"/>
      <point x="265" y="68"/>
      <point x="189" y="151"/>
      <point x="189" y="273" type="curve" smooth="yes"/>
      <point x="189" y="387"/>
      <point x="264" y="474"/>
      <point x="372" y="474" type="curve"/>
      <point x="488" y="474"/>
      <point x="551" y="386"/>
      <point x="551" y="278" type="curve" smooth="yes"/>
      <point x="551" y="168"/>
      <point x="493" y="68"/>
    </contour>
    <contour>
      <point x="95" y="440" type="curve"/>
      <point x="95" y="-152" type="line"/>
      <point x="95" y="-178"/>
      <point x="78" y="-201"/>
      <point x="45" y="-201" type="curve"/>
      <point x="45" y="-250" type="line"/>
      <point x="282" y="-250" type="line"/>
      <point x="282" y="-201" type="line"/>
      <point x="214" y="-201"/>
      <point x="190" y="-187"/>
      <point x="190" y="-152" type="curve"/>
      <point x="190" y="138" type="line"/>
      <point x="174" y="135" type="line"/>
      <point x="174" y="81"/>
      <point x="246" y="-15"/>
      <point x="372" y="-15" type="curve" smooth="yes"/>
      <point x="544" y="-15"/>
      <point x="648" y="111"/>
      <point x="648" y="278" type="curve" smooth="yes"/>
      <point x="648" y="438"/>
      <point x="546" y="562"/>
      <point x="388" y="562" type="curve"/>
      <point x="255" y="562"/>
      <point x="176" y="463"/>
      <point x="176" y="416" type="curve"/>
      <point x="187" y="409" type="line"/>
      <point x="187" y="491" type="line"/>
      <point x="187" y="525"/>
      <point x="157" y="550"/>
      <point x="119" y="550" type="curve"/>
      <point x="22" y="550" type="line"/>
      <point x="22" y="500" type="line"/>
      <point x="66" y="500"/>
      <point x="95" y="474"/>
    </contour>
  </outline>
</glyph>
<glyph name="q" format="1">
  <advance width="752"/>
  <unicode hex="0071"/>
  <outline>
    <contour>
      <point x="537" y="272" type="curve" smooth="yes"/>
      <point x="537" y="163"/>
      <point x="463" y="65"/>
      <point x="356" y="65" type="curve"/>
      <point x="264" y="65"/>
      <point x="181" y="134"/>
      <point x="181" y="264" type="curve"/>
      <point x="181" y="374"/>
      <point x="251" y="477"/>
      <point x="357" y="477" type="curve"/>
      <point x="465" y="477"/>
      <point x="537" y="397"/>
    </contour>
    <contour>
      <point x="532" y="-118" type="line"/>
      <point x="532" y="-157"/>
      <point x="514" y="-179"/>
      <point x="482" y="-179" type="curve"/>
      <point x="482" y="-250" type="line"/>
      <point x="707" y="-250" type="line"/>
      <point x="707" y="-180" type="line"/>
      <point x="644" y="-180"/>
      <point x="628" y="-156"/>
      <point x="628" y="-112" type="curve"/>
      <point x="628" y="549" type="line"/>
      <point x="589" y="549" type="line"/>
      <point x="525" y="442" type="line"/>
      <point x="546" y="444" type="line"/>
      <point x="546" y="494"/>
      <point x="450" y="562"/>
      <point x="361" y="562" type="curve"/>
      <point x="220" y="562"/>
      <point x="80" y="454"/>
      <point x="80" y="260" type="curve"/>
      <point x="80" y="108"/>
      <point x="179" y="-19"/>
      <point x="346" y="-19" type="curve"/>
      <point x="463" y="-19"/>
      <point x="547" y="58"/>
      <point x="547" y="113" type="curve"/>
      <point x="532" y="107" type="line"/>
    </contour>
  </outline>
</glyph>
<glyph name="r" format="1">
  <advance width="451"/>
  <unicode hex="0072"/>
  <outline>
    <contour>
      <point x="109" y="98" type="line"/>
      <point x="109" y="63"/>
      <point x="89" y="49"/>
      <point x="54" y="49" type="curve"/>
      <point x="54" y="0" type="line"/>
      <point x="287" y="0" type="line"/>
      <point x="287" y="49" type="line"/>
      <point x="237" y="49"/>
      <point x="204" y="62"/>
      <point x="204" y="98" type="curve"/>
      <point x="204" y="328" type="line"/>
      <point x="204" y="429"/>
      <point x="235" y="484"/>
      <point x="306" y="484" type="curve"/>
      <point x="348" y="484"/>
      <point x="372" y="453"/>
      <point x="372" y="451" type="curve"/>
      <point x="421" y="451" type="line"/>
      <point x="421" y="537" type="line"/>
      <point x="405" y="554"/>
      <point x="374" y="565"/>
      <point x="332" y="565" type="curve"/>
      <point x="252" y="565"/>
      <point x="180" y="500"/>
      <point x="180" y="450" type="curve"/>
      <point x="189" y="457" type="line"/>
      <point x="180" y="516" type="line" smooth="yes"/>
      <point x="177" y="538"/>
      <point x="157" y="550"/>
      <point x="139" y="550" type="curve"/>
      <point x="42" y="550" type="line"/>
      <point x="42" y="500" type="line"/>
      <point x="85" y="500"/>
      <point x="109" y="487"/>
      <point x="109" y="440" type="curve"/>
    </contour>
  </outline>
</glyph>
<glyph name="s" format="1">
  <advance width="593"/>
  <unicode hex="0073"/>
  <outline>
    <contour>
      <point x="319" y="321" type="curve" smooth="yes"/>
      <point x="259" y="338"/>
      <point x="189" y="364"/>
      <point x="189" y="416" type="curve"/>
      <point x="189" y="464"/>
      <point x="242" y="492"/>
      <point x="303" y="492" type="curve"/>
      <point x="378" y="492"/>
      <point x="409" y="466"/>
      <point x="409" y="400" type="curve"/>
      <point x="481" y="400" type="line"/>
      <point x="481" y="518" type="line"/>
      <point x="481" y="522"/>
      <point x="429" y="566"/>
      <point x="312" y="566" type="curve"/>
      <point x="186" y="566"/>
      <point x="97" y="512"/>
      <point x="97" y="406" type="curve"/>
      <point x="97" y="302"/>
      <point x="207" y="259"/>
      <point x="270" y="240" type="curve" smooth="yes"/>
      <point x="347" y="217"/>
      <point x="412" y="194"/>
      <point x="412" y="139" type="curve"/>
      <point x="412" y="87"/>
      <point x="354" y="64"/>
      <point x="281" y="64" type="curve"/>
      <point x="220" y="64"/>
      <point x="168" y="92"/>
      <point x="168" y="176" type="curve"/>
      <point x="95" y="176" type="line"/>
      <point x="95" y="50" type="line"/>
      <point x="91" y="50"/>
      <point x="152" y="-17"/>
      <point x="289" y="-17" type="curve"/>
      <point x="420" y="-17"/>
      <point x="506" y="43"/>
      <point x="506" y="153" type="curve"/>
      <point x="506" y="276"/>
      <point x="385" y="302"/>
    </contour>
  </outline>
</glyph>
<glyph name="t" format="1">
  <advance width="428"/>
  <unicode hex="0074"/>
  <outline>
    <contour>
      <point x="388" y="70" type="line"/>
      <point x="380" y="70"/>
      <point x="357" y="60"/>
      <point x="297" y="60" type="curve"/>
      <point x="227" y="60"/>
      <point x="208" y="100"/>
      <point x="208" y="219" type="curve" smooth="yes"/>
      <point x="208" y="475" type="line"/>
      <point x="382" y="475" type="line"/>
      <point x="381" y="550" type="line"/>
      <point x="207" y="550" type="line"/>
      <point x="207" y="679" type="line"/>
      <point x="133" y="679" type="line"/>
      <point x="133" y="569"/>
      <point x="98" y="530"/>
      <point x="30" y="530" type="curve"/>
      <point x="30" y="477" type="line"/>
      <point x="106" y="477" type="line"/>
      <point x="106" y="211" type="line"/>
      <point x="106" y="93"/>
      <point x="137" y="-10"/>
      <point x="292" y="-10" type="curve"/>
      <point x="364" y="-10"/>
      <point x="386" y="6"/>
      <point x="389" y="10" type="curve"/>
    </contour>
  </outline>
</glyph>
<glyph name="u" format="1">
  <advance width="720"/>
  <unicode hex="0075"/>
  <outline>
    <contour>
      <point x="511" y="231" type="line"/>
      <point x="511" y="156"/>
      <point x="449" y="69"/>
      <point x="356" y="67" type="curve"/>
      <point x="267" y="67"/>
      <point x="216" y="109"/>
      <point x="216" y="227" type="curve"/>
      <point x="216" y="465" type="line"/>
      <point x="216" y="497"/>
      <point x="201" y="550"/>
      <point x="173" y="550" type="curve"/>
      <point x="50" y="550" type="line"/>
      <point x="50" y="479" type="line"/>
      <point x="94" y="479"/>
      <point x="121" y="462"/>
      <point x="121" y="428" type="curve"/>
      <point x="121" y="204" type="line"/>
      <point x="121" y="81"/>
      <point x="186" y="-15"/>
      <point x="330" y="-15" type="curve"/>
      <point x="448" y="-15"/>
      <point x="536" y="73"/>
      <point x="536" y="132" type="curve"/>
      <point x="522" y="127" type="line"/>
      <point x="522" y="41"/>
      <point x="556" y="0"/>
      <point x="596" y="0" type="curve"/>
      <point x="681" y="0" type="line"/>
      <point x="680" y="75" type="line"/>
      <point x="637" y="75"/>
      <point x="606" y="92"/>
      <point x="606" y="132" type="curve"/>
      <point x="606" y="465" type="line"/>
      <point x="606" y="502"/>
      <point x="588" y="550"/>
      <point x="561" y="550" type="curve"/>
      <point x="437" y="550" type="line"/>
      <point x="437" y="479" type="line"/>
      <point x="486" y="479"/>
      <point x="511" y="462"/>
      <point x="511" y="429" type="curve"/>
    </contour>
  </outline>
</glyph>
<glyph name="v" format="1">
  <advance width="611"/>
  <unicode hex="0076"/>
  <outline>
    <contour>
      <point x="157" y="500" type="line" smooth="yes"/>
      <point x="146" y="529"/>
      <point x="129" y="551"/>
      <point x="99" y="551" type="curve"/>
      <point x="-2" y="551" type="line"/>
      <point x="-2" y="501" type="line"/>
      <point x="33" y="501"/>
      <point x="60" y="494"/>
      <point x="71" y="465" type="curve"/>
      <point x="245" y="1" type="line"/>
      <point x="335" y="1" type="line"/>
      <point x="558" y="461" type="line" smooth="yes"/>
      <point x="570" y="485"/>
      <point x="593" y="500"/>
      <point x="615" y="500" type="curve"/>
      <point x="615" y="550" type="line"/>
      <point x="400" y="550" type="line"/>
      <point x="400" y="500" type="line"/>
      <point x="431" y="500"/>
      <point x="453" y="497"/>
      <point x="459" y="486" type="curve" smooth="yes"/>
      <point x="464" y="477"/>
      <point x="464" y="461"/>
      <point x="458" y="448" type="curve"/>
      <point x="291" y="76" type="line"/>
      <point x="313" y="74" type="line"/>
    </contour>
  </outline>
</glyph>
<glyph name="w" format="1">
  <advance width="896"/>
  <unicode hex="0077"/>
  <outline>
    <contour>
      <point x="95" y="550" type="curve"/>
      <point x="1" y="550" type="line"/>
      <point x="1" y="483" type="line"/>
      <point x="26" y="483"/>
      <point x="57" y="488"/>
      <point x="66" y="458" type="curve"/>
      <point x="200" y="0" type="line"/>
      <point x="313" y="0" type="line"/>
      <point x="458" y="433" type="line"/>
      <point x="442" y="434" type="line"/>
      <point x="582" y="0" type="line"/>
      <point x="693" y="0" type="line"/>
      <point x="853" y="452" type="line"/>
      <point x="864" y="473"/>
      <point x="886" y="484"/>
      <point x="911" y="484" type="curve"/>
      <point x="911" y="550" type="line"/>
      <point x="703" y="550" type="line"/>
      <point x="703" y="483" type="line"/>
      <point x="742" y="483" type="line"/>
      <point x="762" y="483"/>
      <point x="766" y="463"/>
      <point x="763" y="453" type="curve"/>
      <point x="638" y="68" type="line"/>
      <point x="660" y="68" type="line"/>
      <point x="499" y="550" type="line"/>
      <point x="411" y="550" type="line"/>
      <point x="257" y="67" type="line"/>
      <point x="278" y="68" type="line"/>
      <point x="154" y="483" type="line" smooth="yes"/>
      <point x="147" y="505"/>
      <point x="122" y="550"/>
    </contour>
  </outline>
</glyph>
<glyph name="x" format="1">
  <advance width="629"/>
  <unicode hex="0078"/>
  <outline>
    <contour>
      <point x="190" y="80" type="curve" smooth="yes"/>
      <point x="324" y="248" type="line"/>
      <point x="290" y="247" type="line"/>
      <point x="429" y="79" type="line" smooth="yes"/>
      <point x="440" y="66"/>
      <point x="437" y="49"/>
      <point x="424" y="49" type="curve"/>
      <point x="388" y="49" type="line"/>
      <point x="388" y="0" type="line"/>
      <point x="629" y="0" type="line"/>
      <point x="629" y="49" type="line"/>
      <point x="598" y="49"/>
      <point x="563" y="56"/>
      <point x="533" y="92" type="curve" smooth="yes"/>
      <point x="364" y="291" type="line"/>
      <point x="363" y="246" type="line"/>
      <point x="547" y="474" type="line" smooth="yes"/>
      <point x="564" y="495"/>
      <point x="582" y="500"/>
      <point x="605" y="500" type="curve"/>
      <point x="605" y="550" type="line"/>
      <point x="387" y="550" type="line"/>
      <point x="387" y="500" type="line"/>
      <point x="431" y="500" type="line"/>
      <point x="451" y="500"/>
      <point x="447" y="475"/>
      <point x="438" y="464" type="curve" smooth="yes"/>
      <point x="309" y="305" type="line"/>
      <point x="344" y="307" type="line"/>
      <point x="216" y="464" type="line" smooth="yes"/>
      <point x="205" y="478"/>
      <point x="201" y="500"/>
      <point x="222" y="500" type="curve"/>
      <point x="261" y="500" type="line"/>
      <point x="261" y="550" type="line"/>
      <point x="14" y="550" type="line"/>
      <point x="14" y="500" type="line"/>
      <point x="41" y="500"/>
      <point x="74" y="500"/>
      <point x="97" y="471" type="curve" smooth="yes"/>
      <point x="261" y="267" type="line"/>
      <point x="265" y="300" type="line"/>
      <point x="81" y="84" type="line" smooth="yes"/>
      <point x="62" y="61"/>
      <point x="32" y="49"/>
      <point x="9" y="49" type="curve"/>
      <point x="9" y="0" type="line"/>
      <point x="238" y="0" type="line"/>
      <point x="237" y="49" type="line"/>
      <point x="201" y="49" type="line"/>
      <point x="185" y="49"/>
      <point x="183" y="71"/>
    </contour>
  </outline>
</glyph>
<glyph name="y" format="1">
  <advance width="715"/>
  <unicode hex="0079"/>
  <outline>
    <contour>
      <point x="207" y="480" type="line" smooth="yes"/>
      <point x="197" y="509"/>
      <point x="180" y="550"/>
      <point x="152" y="550" type="curve"/>
      <point x="38" y="550" type="line"/>
      <point x="38" y="479" type="line"/>
      <point x="69" y="479"/>
      <point x="105" y="472"/>
      <point x="115" y="444" type="curve" smooth="yes"/>
      <point x="283" y="-29" type="line"/>
      <point x="254" y="-99"/>
      <point x="204" y="-144"/>
      <point x="101" y="-144" type="curve"/>
      <point x="101" y="-216" type="line"/>
      <point x="216" y="-216"/>
      <point x="285" y="-202"/>
      <point x="364" y="-47" type="curve"/>
      <point x="408" y="36"/>
      <point x="571" y="414"/>
      <point x="586" y="442" type="curve" smooth="yes"/>
      <point x="596" y="461"/>
      <point x="614" y="479"/>
      <point x="657" y="479" type="curve"/>
      <point x="657" y="550" type="line"/>
      <point x="410" y="550" type="line"/>
      <point x="410" y="479" type="line"/>
      <point x="455" y="479" type="line"/>
      <point x="474" y="479"/>
      <point x="494" y="459"/>
      <point x="487" y="443" type="curve" smooth="yes"/>
      <point x="317" y="33" type="line"/>
      <point x="362" y="18" type="line"/>
    </contour>
  </outline>
</glyph>
<glyph name="z" format="1">
  <advance width="599"/>
  <unicode hex="007A"/>
  <outline>
    <contour>
      <point x="380" y="76" type="line"/>
      <point x="420" y="76"/>
      <point x="451" y="128"/>
      <point x="451" y="154" type="curve"/>
      <point x="522" y="154" type="line"/>
      <point x="495" y="1" type="line"/>
      <point x="84" y="1" type="line"/>
      <point x="79" y="73" type="line"/>
      <point x="395" y="484" type="line"/>
      <point x="399" y="473" type="line"/>
      <point x="224" y="473" type="line"/>
      <point x="190" y="473"/>
      <point x="159" y="422"/>
      <point x="159" y="385" type="curve"/>
      <point x="83" y="385" type="line"/>
      <point x="111" y="550" type="line"/>
      <point x="495" y="550" type="line"/>
      <point x="500" y="476" type="line"/>
      <point x="182" y="59" type="line"/>
      <point x="184" y="76" type="line"/>
    </contour>
  </outline>
</glyph>
<glyph name="Agrave" format="1">
  <advance width="799"/>
  <unicode hex="00C0"/>
  <outline>
    <contour>
      <point x="78" y="0" type="line"/>
      <point x="365" y="750" type="line"/>
      <point x="387" y="750" type="line"/>
      <point x="100" y="0" type="line"/>
    </contour>
    <contour>
      <point x="725" y="0" type="line"/>
      <point x="702" y="0" type="line"/>
      <point x="365" y="750" type="line"/>
      <point x="388" y="750" type="line"/>
    </contour>
    <contour>
      <point x="219" y="332" type="line"/>
      <point x="559" y="332" type="line"/>
      <point x="568" y="312" type="line"/>
      <point x="213" y="312" type="line"/>
    </contour>
    <contour>
      <point x="35" y="21" type="line"/>
      <point x="171" y="21" type="line"/>
      <point x="171" y="0" type="line"/>
      <point x="35" y="0" type="line"/>
    </contour>
    <contour>
      <point x="633" y="21" type="line"/>
      <point x="769" y="21" type="line"/>
      <point x="769" y="0" type="line"/>
      <point x="633" y="0" type="line"/>
    </contour>
  </outline>
</glyph>
<glyph name="quoteright" format="1">
  <advance width="371"/>
  <unicode hex="2019"/>
  <outline>
    <contour>
      <point x="241" y="363" type="line"/>
      <point x="247" y="363"/>
      <point x="255" y="368"/>
      <point x="255" y="380" type="curve"/>
      <point x="255" y="574" type="line"/>
      <point x="255" y="635"/>
      <point x="235" y="651"/>
      <point x="176" y="651" type="curve" smooth="yes"/>
      <point x="119" y="651"/>
      <point x="98" y="635"/>
      <point x="98" y="574" type="curve" smooth="yes"/>
      <point x="98" y="517"/>
      <point x="104" y="493"/>
      <point x="177" y="493" type="curve"/>
      <point x="161" y="527" type="line"/>
      <point x="162" y="378" type="line"/>
      <point x="162" y="367"/>
      <point x="164" y="363"/>
      <point x="172" y="363" type="curve"/>
    </contour>
  </outline>
</glyph>
<glyph name="H2" format="1">
  <advance width="862"/>
  <outline>
    <contour>
      <point x="73" y="700" type="line"/>
      <point x="73" y="651" type="line"/>
      <point x="127" y="629" type="line"/>
      <point x="127" y="23" type="line"/>
      <point x="127" y="9"/>
      <point x="138" y="-1"/>
      <point x="150" y="0" type="curve"/>
      <point x="302" y="0" type="line"/>
      <point x="302" y="42" type="line"/>
      <point x="265" y="42"/>
      <point x="234" y="59"/>
      <point x="234" y="89" type="curve" smooth="yes"/>
      <point x="234" y="107"/>
      <point x="234" y="544"/>
      <point x="234" y="700" type="curve"/>
    </contour>
    <contour>
      <point x="534" y="700" type="line"/>
      <point x="534" y="651" type="line"/>
      <point x="588" y="629" type="line"/>
      <point x="588" y="23" type="line"/>
      <point x="588" y="9"/>
      <point x="599" y="-1"/>
      <point x="611" y="0" type="curve"/>
      <point x="763" y="0" type="line"/>
      <point x="763" y="42" type="line"/>
      <point x="726" y="42"/>
      <point x="695" y="59"/>
      <point x="695" y="89" type="curve" smooth="yes"/>
      <point x="695" y="107"/>
      <point x="695" y="544"/>
      <point x="695" y="700" type="curve"/>
    </contour>
    <contour>
      <point x="171" y="450" type="line"/>
      <point x="171" y="347" type="line"/>
      <point x="628" y="347" type="line"/>
      <point x="628" y="450" type="line"/>
    </contour>
  </outline>
</glyph>
<glyph name="alt-g" format="1">
  <advance width="702"/>
  <outline>
    <contour>
      <point x="351" y="558" type="curve" smooth="yes"/>
      <point x="489" y="558"/>
      <point x="600" y="446"/>
      <point x="600" y="311" type="curve" smooth="yes"/>
      <point x="600" y="175"/>
      <point x="489" y="63"/>
      <point x="351" y="63" type="curve" smooth="yes"/>
      <point x="213" y="63"/>
      <point x="102" y="175"/>
      <point x="102" y="311" type="curve" smooth="yes"/>
      <point x="102" y="446"/>
      <point x="213" y="558"/>
    </contour>
    <contour>
      <point x="203" y="310" type="curve" smooth="yes"/>
      <point x="203" y="224"/>
      <point x="271" y="148"/>
      <point x="351" y="148" type="curve" smooth="yes"/>
      <point x="437" y="148"/>
      <point x="499" y="224"/>
      <point x="499" y="310" type="curve" smooth="yes"/>
      <point x="499" y="396"/>
      <point x="431" y="472"/>
      <point x="351" y="472" type="curve" smooth="yes"/>
      <point x="268" y="472"/>
      <point x="203" y="396"/>
    </contour>
    <contour>
      <point x="385" y="100" type="line"/>
      <point x="528" y="162" type="line"/>
      <point x="391" y="9" type="line"/>
      <point x="381" y="24" type="line"/>
      <point x="485" y="24"/>
      <point x="608" y="-23"/>
      <point x="608" y="-156" type="curve"/>
      <point x="608" y="-274"/>
      <point x="504" y="-381"/>
      <point x="351" y="-381" type="curve"/>
      <point x="178" y="-381"/>
      <point x="112" y="-228"/>
      <point x="112" y="-112" type="curve"/>
      <point x="186" y="-112" type="line"/>
      <point x="186" y="-195"/>
      <point x="246" y="-289"/>
      <point x="354" y="-289" type="curve"/>
      <point x="441" y="-289"/>
      <point x="499" y="-237"/>
      <point x="499" y="-166" type="curve"/>
      <point x="499" y="-79"/>
      <point x="416" y="-43"/>
      <point x="312" y="-43" type="curve"/>
      <point x="283" y="4" type="line"/>
    </contour>
    <contour>
      <point x="469" y="518" type="line"/>
      <point x="645" y="607" type="line"/>
      <point x="670" y="580" type="line"/>
      <point x="670" y="516" type="line"/>
      <point x="608" y="519" type="line"/>
      <point x="506" y="478" type="line"/>
    </contour>
  </outline>
</glyph>
<glyph name="components" format="1">
  <advance width="2435"/>
  <outline>
    <contour>
      <point x="140" y="750" type="line"/>
      <point x="163" y="750" type="line"/>
      <point x="507" y="-1" type="line"/>
      <point x="484" y="-1" type="line"/>
    </contour>
    <contour>
      <point x="684" y="750" type="line"/>
      <point x="684" y="0" type="line"/>
      <point x="704" y="0" type="line"/>
      <point x="704" y="750" type="line"/>
    </contour>
    <contour>
      <point x="879" y="751" type="curve"/>
      <point x="879" y="734" type="line"/>
      <point x="879" y="734"/>
      <point x="943" y="740"/>
      <point x="985" y="740" type="curve"/>
      <point x="1080" y="740"/>
      <point x="1199" y="712"/>
      <point x="1199" y="562" type="curve" smooth="yes"/>
      <point x="1199" y="379"/>
      <point x="995" y="357"/>
      <point x="919" y="357" type="curve" smooth="yes"/>
      <point x="900" y="357"/>
      <point x="879" y="359"/>
      <point x="879" y="359" type="curve"/>
      <point x="879" y="340" type="line"/>
      <point x="879" y="340"/>
      <point x="893" y="338"/>
      <point x="914" y="338" type="curve" smooth="yes"/>
      <point x="1003" y="338"/>
      <point x="1222" y="356"/>
      <point x="1222" y="565" type="curve"/>
      <point x="1222" y="733"/>
      <point x="1085" y="759"/>
      <point x="984" y="758" type="curve"/>
      <point x="936" y="758"/>
      <point x="879" y="751"/>
    </contour>
    <contour>
      <point x="1800" y="727" type="line"/>
      <point x="1800" y="733"/>
      <point x="1770" y="758"/>
      <point x="1696" y="758" type="curve"/>
      <point x="1600" y="758"/>
      <point x="1512" y="692"/>
      <point x="1512" y="548" type="curve" smooth="yes"/>
      <point x="1512" y="383"/>
      <point x="1629" y="331"/>
      <point x="1708" y="331" type="curve"/>
      <point x="1770" y="331"/>
      <point x="1800" y="340"/>
      <point x="1800" y="343" type="curve"/>
      <point x="1800" y="369" type="line"/>
      <point x="1800" y="360"/>
      <point x="1756" y="351"/>
      <point x="1709" y="351" type="curve"/>
      <point x="1642" y="351"/>
      <point x="1534" y="399"/>
      <point x="1534" y="548" type="curve" smooth="yes"/>
      <point x="1534" y="678"/>
      <point x="1616" y="739"/>
      <point x="1696" y="739" type="curve"/>
      <point x="1757" y="739"/>
      <point x="1800" y="714"/>
      <point x="1800" y="706" type="curve"/>
    </contour>
    <contour>
      <point x="1027" y="188" type="line"/>
      <point x="1027" y="167" type="line"/>
      <point x="1484" y="167" type="line"/>
      <point x="1484" y="188" type="line"/>
    </contour>
  </outline>
</glyph>
<glyph name="quotedblright" format="1">
  <advance width="543"/>
  <outline>
    <contour>
      <point x="231" y="463" type="line"/>
      <point x="237" y="463"/>
      <point x="245" y="468"/>
      <point x="245" y="480" type="curve"/>
      <point x="245" y="674" type="line"/>
      <point x="245" y="735"/>
      <point x="225" y="751"/>
      <point x="166" y="751" type="curve" smooth="yes"/>
      <point x="109" y="751"/>
      <point x="88" y="735"/>
      <point x="88" y="674" type="curve" smooth="yes"/>
      <point x="88" y="617"/>
      <point x="94" y="593"/>
      <point x="167" y="593" type="curve"/>
      <point x="151" y="627" type="line"/>
      <point x="152" y="478" type="line"/>
      <point x="152" y="467"/>
      <point x="154" y="463"/>
      <point x="162" y="463" type="curve"/>
    </contour>
    <contour>
      <point x="431" y="463" type="line"/>
      <point x="437" y="463"/>
      <point x="445" y="468"/>
      <point x="445" y="480" type="curve"/>
      <point x="445" y="674" type="line"/>
      <point x="445" y="735"/>
      <point x="425" y="751"/>
      <point x="366" y="751" type="curve" smooth="yes"/>
      <point x="309" y="751"/>
      <point x="288" y="735"/>
      <point x="288" y="674" type="curve" smooth="yes"/>
      <point x="288" y="617"/>
      <point x="294" y="593"/>
      <point x="367" y="593" type="curve"/>
      <point x="351" y="627" type="line"/>
      <point x="352" y="478" type="line"/>
      <point x="352" y="467"/>
      <point x="354" y="463"/>
      <point x="362" y="463" type="curve"/>
    </contour>
  </outline>
</glyph>
